<svg width="10" height="10" viewBox="0 0 10 10" fill="none" xmlns="http://www.w3.org/2000/svg">
<path d="M4.99826 0C5.15798 0 5.30381 0.102539 5.37326 0.264063L6.56423 3.02344L9.22569 3.4668C9.38194 3.49219 9.51041 3.61523 9.56075 3.7832C9.60937 3.95312 9.56943 4.13867 9.45832 4.26172L7.52777 6.41406L7.98437 9.45117C8.01041 9.62695 7.94617 9.80664 7.81596 9.91016C7.68749 10.0137 7.50173 10.0273 7.37673 9.94336L4.99826 8.51367L2.6059 9.94336C2.4809 10.0273 2.31076 10.0137 2.18055 9.91016C2.05208 9.80664 1.98784 9.62695 1.99826 9.45117L2.46875 6.41406L0.540102 4.26172C0.42795 4.13867 0.388193 3.95312 0.437498 3.7832C0.48663 3.61523 0.616318 3.49219 0.772394 3.4668L3.43229 3.02344L4.62326 0.264063C4.69444 0.10252 4.83854 0 4.99826 0ZM4.99826 1.54199L4.0868 3.65625C4.02604 3.79492 3.90798 3.89258 3.77257 3.91602L1.7184 4.25586L3.21007 5.91797C3.30555 6.02539 3.34895 6.17969 3.32638 6.33008L2.97569 8.66602L4.80208 7.56836C4.92534 7.49414 5.07291 7.49414 5.19444 7.56836L7.02083 8.66602L6.67013 6.33008C6.64756 6.17969 6.6927 6.02539 6.78819 5.91797L8.27951 4.25586L6.22569 3.91602C6.08854 3.89258 5.97048 3.79492 5.91145 3.65625L4.99826 1.54199Z" fill="#0F0F0F"/>
</svg>
