<svg width="10" height="10" viewBox="0 0 10 10" fill="none" xmlns="http://www.w3.org/2000/svg">
<g clip-path="url(#clip0_7_151)">
<path d="M6.61805 2.93555L9.11283 3.34962C9.31943 3.38282 9.49304 3.54688 9.55901 3.77149C9.62498 3.99806 9.57116 4.24415 9.42186 4.41212L7.61283 6.40822L8.03992 9.27151C8.07464 9.50588 7.98957 9.74416 7.81596 9.88284C7.64408 10.0215 7.41665 10.0391 7.23089 9.92776L5.00173 8.58986L2.7743 9.92776C2.5868 10.0391 2.35937 10.0215 2.1875 9.88284C2.01562 9.74416 1.92882 9.50588 1.96528 9.27151L2.39236 6.40822L0.582987 4.41212C0.433508 4.24415 0.380383 3.99806 0.446008 3.77149C0.511459 3.54688 0.684549 3.38282 0.892708 3.34962L3.38541 2.93555L4.50347 0.350978C4.59548 0.135821 4.78992 -0.000762939 5.00173 -0.000762939C5.21527 -0.000762939 5.40971 0.135821 5.50173 0.350978L6.61805 2.93555Z" fill="#0F0F0F"/>
</g>
<defs>
<clipPath id="clip0_7_151">
<rect width="10" height="10" fill="white"/>
</clipPath>
</defs>
</svg>
