<svg width="209" height="165" viewBox="0 0 209 165" fill="none" xmlns="http://www.w3.org/2000/svg">
<path d="M102.5 1.09999C94.8 1.39999 86.4 1.79999 83.7 1.89999L79 1.99999L79.6 13C80 19 80 24 79.7 24C79.3 24 78.1 22.2 77 20.1C75.9 17.9 74.6 15.9 74.1 15.6C73.4 15.1 47.3 29.3 37.3 35.6C35.1 37 35.1 37 43 50.7L50.9 64.5L46.2 67C40.3 70.1 36.6 76.6 37.5 82C38.2 85.8 48.7 106.5 52.7 111.8C57.6 118.3 64 119.5 74.5 115.9C82.3 113.2 95.8 111 104 111C112.4 111 125.8 113.2 133.7 115.9C141 118.4 144.8 118.5 149.4 116.6C153.7 114.8 156.4 111.1 164 96.6C171 83.5 171.8 78.8 168.3 72.7C166.7 70 160 65.5 154.8 63.8C154 63.5 156.7 58.5 161.4 51.1C165.7 44.3 168.8 38.4 168.3 38C166.7 36.5 132.8 15 132 15C131.6 15 129.9 17.1 128.2 19.6L125.2 24.3L124.5 12.1L123.7 -7.86057e-06L120.1 0.199992C118.1 0.299992 110.2 0.699992 102.5 1.09999ZM122.4 7.19999C122.7 10.1 123.3 22.4 123.6 34.4L124.3 56.3L117.4 55.7C113.6 55.3 107.5 55 103.9 55H97.2L89.7 41.7L82.2 28.5L81.5 16.2C81.1 9.29999 81.1 3.89999 81.6 3.89999C83 3.69999 109.7 2.39999 116.1 2.19999L121.8 1.99999L122.4 7.19999ZM84.1 35.8C90.9 47.7 94.3 54.7 93.6 55.1C93 55.5 89.3 56 85.4 56.4C79.3 56.9 58.7 61.5 54 63.4C52.9 63.8 50.5 60.6 45 50.7L37.4 37.5L55 27.3C64.6 21.8 72.7 17.2 73 17.1C73.3 17.1 78.3 25.5 84.1 35.8ZM150.3 28.3C158.9 33.8 166.2 38.5 166.4 38.9C166.6 39.2 163.5 44.7 159.4 51L152.1 62.6L139.3 59.4L126.5 56.3L125.9 42.4C125.5 33.8 125.7 27.7 126.3 26.5C129.2 20.8 132.2 17 133.3 17.6C134 18 141.6 22.8 150.3 28.3ZM102.8 70.2C104.3 71.7 104.4 75 103 75C102.4 75 101.7 74.3 101.4 73.5C101 72.7 100.2 72 99.4 72C96.9 72 97.9 76.1 101.5 80.3C105.9 85.4 106.4 90.6 102.6 91.6C98.4 92.6 95.5 91.7 95.2 89.2C95 87.7 95.4 87 96.4 87C97.3 87 98 87.7 98 88.6C98 89.5 98.7 90 99.8 89.8C102.3 89.2 101.5 85.3 97.9 80C94.6 75.3 93.9 71.3 96.1 69.9C98.1 68.7 101.4 68.8 102.8 70.2ZM120.5 70C122.4 70.9 122.4 70.9 120.3 71.6C119 71.9 118 72.3 118 72.4C117.9 72.4 117.5 76.9 117.1 82.3C116.1 92.4 115.7 94.1 114 92.4C113.5 91.9 113.4 87.7 113.9 82C114.5 74.5 114.4 72.3 113.3 71.7C109.5 69.4 115.8 67.9 120.5 70ZM86.4 82.4C88.4 87.4 90 91.8 90 92.2C90 93.9 87.1 92.9 86.5 91C85.5 88 82.2 88.4 81.8 91.7C81.6 93.1 80.9 94.5 80.3 94.8C79.3 95.1 79 92.4 79 83.7C79 77.5 79.3 72 79.7 71.6C80.9 70.4 82.8 73.4 86.4 82.4ZM134.1 72.2L137.5 73.4L134.5 74C132.2 74.4 131.4 75.2 130.9 77.7C130.4 80.2 130.6 80.9 132.1 81.3C134.6 82 134.5 84 132 84C130.7 84 129.6 85 129 86.6C127.5 90.4 127.8 92 129.9 92C131 92 132.2 92.4 132.5 93C132.9 93.6 131.5 94 129.1 94C124.3 94 123.8 92.8 125.9 84.5C126.7 81.2 127.7 76.8 128.2 74.7C129.2 70.6 129.3 70.5 134.1 72.2ZM145 85.5L142.1 94.5L144.3 96.2L146.5 98H143.2C137.8 98 137.8 97.3 145.2 77.1C145.7 75.6 146.4 75 147 75.6C147.6 76.2 146.8 80 145 85.5ZM68.6 79.5C70.7 84.7 70.4 86.9 67.4 87.6C65.1 88.2 64.9 88.6 65.5 91.4C65.9 93.1 66.5 95.6 66.7 96.9C67.1 98.6 66.9 99.1 65.9 98.8C64.6 98.4 60.9 88.6 59.1 80.8C58.1 76.7 58.6 76.2 63.8 76.1C66.7 76 67.3 76.5 68.6 79.5Z" fill="#0F0F0F"/>
<path d="M87 14.9C85.6 17.7 85.7 18.7 87.7 19.5C90.2 20.4 93.5 16.3 91.9 14.4C90.3 12.4 88.2 12.7 87 14.9Z" fill="#0F0F0F"/>
<path d="M100 16.5C100 17.4 100.5 18 101.1 17.8C101.7 17.6 102.2 17 102.2 16.5C102.2 16 101.7 15.4 101.1 15.2C100.5 15 100 15.6 100 16.5Z" fill="#0F0F0F"/>
<path d="M91 23.5C91 24.4 91.5 25 92.1 24.8C92.7 24.6 93.2 24 93.2 23.5C93.2 23 92.7 22.4 92.1 22.2C91.5 22 91 22.6 91 23.5Z" fill="#0F0F0F"/>
<path d="M112.9 35.1C112 36.8 112.1 37.4 113.1 38.1C114.8 39.1 118.6 35.7 117.6 34.1C116.5 32.3 114.2 32.8 112.9 35.1Z" fill="#0F0F0F"/>
<path d="M98 47.5C98 48.4 98.5 49 99.1 48.8C99.7 48.6 100.2 48 100.2 47.5C100.2 47 99.7 46.4 99.1 46.2C98.5 46 98 46.6 98 47.5Z" fill="#0F0F0F"/>
<path d="M71 26.6C71 27.4 71.5 27.8 72 27.5C72.6 27.1 72.8 26.4 72.5 25.9C71.6 24.5 71 24.8 71 26.6Z" fill="#0F0F0F"/>
<path d="M62.6 35.9C59.3 39.6 61.9 45 65.5 42C67.4 40.4 67.5 35.4 65.6 34.7C64.8 34.4 63.5 34.9 62.6 35.9Z" fill="#0F0F0F"/>
<path d="M70.7 44.4C70.4 45.2 70.8 46.1 71.6 46.4C73.9 47.3 74 47.2 74 45C74 42.7 71.5 42.3 70.7 44.4Z" fill="#0F0F0F"/>
<path d="M85 52C85 52.5 85.5 53 86 53C86.6 53 87 52.5 87 52C87 51.4 86.6 51 86 51C85.5 51 85 51.4 85 52Z" fill="#0F0F0F"/>
<path d="M55 54.5C55 55.4 55.5 56 56.1 55.8C56.7 55.6 57.2 55 57.2 54.5C57.2 54 56.7 53.4 56.1 53.2C55.5 53 55 53.6 55 54.5Z" fill="#0F0F0F"/>
<path d="M129.1 30.3C127.6 32.2 128.8 35.3 130.7 34.6C131.5 34.3 132.8 34 133.7 34C134.6 34 135 33.2 134.8 31.7C134.4 29.1 130.9 28.2 129.1 30.3Z" fill="#0F0F0F"/>
<path d="M140.6 37.7C139.5 38.8 140 40 141.5 40C142.3 40 143 39.6 143 39.1C143 37.8 141.4 36.9 140.6 37.7Z" fill="#0F0F0F"/>
<path d="M129 39.5C129 40.4 129.5 41 130.1 40.8C130.7 40.6 131.2 40 131.2 39.5C131.2 39 130.7 38.4 130.1 38.2C129.5 38 129 38.6 129 39.5Z" fill="#0F0F0F"/>
<path d="M158 42C158 42.5 158.5 43 159 43C159.6 43 160 42.5 160 42C160 41.4 159.6 41 159 41C158.5 41 158 41.4 158 42Z" fill="#0F0F0F"/>
<path d="M145.7 55.6C145.3 56 145.3 56.6 145.6 57.1C146.2 58.1 149 57.1 149 55.9C149 54.9 146.6 54.7 145.7 55.6Z" fill="#0F0F0F"/>
<path d="M82 84.2C82 85.8 82.5 87 83 87C84.3 87 84.3 85 83 83C82.2 81.8 82 82.1 82 84.2Z" fill="#0F0F0F"/>
<path d="M62.4 81.2C63.2 85.1 64.1 86.2 65.8 85.1C67.5 84.1 65.4 78 63.3 78C62.1 78 61.9 78.7 62.4 81.2Z" fill="#0F0F0F"/>
<path d="M205.5 110C202.7 115.4 192.9 157.7 193.1 163.7C193.1 165.2 194.2 161.1 195.6 154.5C199.9 132.7 201.9 125.4 205.5 118.6C208.9 112 210 107 208 107C207.5 107 206.4 108.3 205.5 110ZM206.8 113C206.3 114.7 205.4 116.3 204.9 116.6C204.1 117.1 205.3 112.9 206.6 110.9C207.7 109 207.8 110.1 206.8 113Z" fill="#0F0F0F"/>
<path d="M147 133.1C147 133.6 147.5 133.8 148 133.5C148.6 133.2 149 132.7 149 132.4C149 132.2 148.6 132 148 132C147.5 132 147 132.5 147 133.1Z" fill="#0F0F0F"/>
<path d="M36.6 136.9C34.9 141.4 33.4 149 34.3 149C34.7 149 36.1 146.9 37.6 144.4L40.3 139.8L41.6 142.9C42.3 144.6 43.1 146 43.4 146C43.7 146 44.8 144.3 45.9 142.2C47.8 138.8 48 138.7 48.6 140.7C49.7 144.8 53.4 144.5 57.4 140.1C58.5 138.9 58.9 138 58.3 138C57.8 138 56.5 138.9 55.5 140C53.2 142.5 50 142.6 50 140.2C50 139.3 49.6 137.9 49.1 137.1C48.4 136 47.6 136.8 45.8 140.1L43.5 144.5L43.2 140.2C43 137.9 42.6 136 42.2 136C41.8 136 40.4 137.8 39 140C37.7 142.1 36.4 143.7 36.2 143.5C36 143.3 36.5 141 37.4 138.4C39.4 132.5 38.8 131.5 36.6 136.9Z" fill="#0F0F0F"/>
<path d="M79.1 140.2C78 144.2 77 147.8 77 148.2C77 150.3 78.8 148.5 81.5 143.7C84.5 138.6 84.5 138.5 84.8 141.5C85.3 146.3 86.7 146.6 89.1 142.6C91.2 139 91.3 138.9 92.4 141.1C93 142.3 94 143.5 94.5 143.7C95.9 144.1 102 140.2 102 138.8C102 138.2 100.9 138.7 99.6 139.9C96.5 142.8 93.6 142.3 93.2 138.7C92.7 134.9 91.6 135.3 89.5 140C87.2 145.2 86 145.1 86 139.7C85.9 135.6 85.9 135.5 84.2 137.6C83.3 138.7 81.7 140.7 80.8 142.1C79.2 144.4 79.2 144.2 80.6 139.2C81.5 136.2 81.9 133.6 81.7 133.4C81.5 133.2 80.3 136.2 79.1 140.2Z" fill="#0F0F0F"/>
<path d="M126.6 135.2C124.4 138.3 124.6 139.8 127.9 145.5L130.8 150.5L127.9 155.6C124.7 161.3 124.3 163 126.4 163C128.7 163 132 158 132 154.4C132 151.9 133.3 149.6 137.6 144.5C140.7 140.9 143 137.7 142.7 137.4C142.5 137.1 140 139.6 137.4 142.9C134.7 146.2 132.2 148.9 131.8 148.9C131 149 127.2 142.5 126.5 139.7C125.8 137.2 128.1 134.6 131.5 133.7C133 133.3 132.9 133.2 130.8 133.1C129.1 133 127.6 133.8 126.6 135.2ZM129.5 158.9C128.7 160.6 127.5 162 127 162C125.5 162 125.8 160.9 128.2 157C130.7 152.9 131.8 154.5 129.5 158.9Z" fill="#0F0F0F"/>
<path d="M180.7 134.2C178.5 135.4 176 140.3 176 143.5C176 146.7 177.3 146.7 179.8 143.5C182.3 140.3 182.7 140.4 183.5 143.9C184.7 149.6 189 148.3 193.3 141.1C196 136.5 193.9 137.4 191.1 142C189.7 144.2 188 146.2 187.3 146.4C185.7 147 184 143.3 184 139.2C184 136.5 183.9 136.5 180.5 140.5C176.8 144.8 176.1 144.1 178.5 138.4C179.8 135.3 180.4 134.8 182.5 135.2C183.9 135.5 185 135.4 185 135C185 133.7 182.4 133.2 180.7 134.2Z" fill="#0F0F0F"/>
<path d="M2.09999 137.6C-0.400014 140.7 -0.700014 147.2 1.49999 149C2.29999 149.6 3.79999 149.9 4.99999 149.5C7.29999 148.8 15 139.5 14.9 137.7C14.9 137 14.1 137.6 13.2 139C9.99999 143.6 4.79999 149 3.39999 149C0.699986 149 0.399986 141.9 2.99999 138C3.89999 136.7 4.09999 136.7 4.99999 138C5.79999 139.3 5.99999 139.3 5.99999 137.8C5.99999 134.9 4.29999 134.9 2.09999 137.6Z" fill="#0F0F0F"/>
<path d="M19.3 137.6C16.7 140.5 16.6 141.3 18 144.1C19.3 146.4 21.3 146.6 23 144.5C23.7 143.7 25.1 143 26.1 143C28.1 143 34.2 138.1 32.3 138C31.6 138 31 138.4 31 138.8C31 139.6 26.7 142 25.5 142C25.2 142 25 141.1 25 140.1C25 134.7 22.7 133.7 19.3 137.6ZM24 140C24 141.2 23.7 141.2 22.4 139.8C21.5 138.9 21.1 137.7 21.5 137C22.4 135.6 24 137.5 24 140ZM22.1 144.2C21.1 145.3 20.6 145.1 19.5 143.7C18.8 142.6 18.4 141.1 18.7 140.3C19.2 139.1 19.6 139.2 21.4 140.9C23 142.6 23.2 143.2 22.1 144.2Z" fill="#0F0F0F"/>
<path d="M161.5 136.9C159.3 139.4 158.3 146.5 160 148.5C160.7 149.3 162 150 162.9 150C165.4 150 174 140.4 174 137.7C174 137.2 172.3 139 170.3 141.8C165.5 148.2 163.3 149.7 161.2 147.7C159.7 146.1 160.1 141 162 138C162.9 136.7 163.1 136.7 164 138C164.8 139.3 165 139.3 165 137.8C165 135.2 163.5 134.8 161.5 136.9Z" fill="#0F0F0F"/>
<path d="M105 139.4C103.7 142.9 103.7 143.5 105.4 144.9C106.4 145.8 107 145.7 108 144.5C109.5 142.7 111.1 142.5 110.4 144.3C110.2 145 110.6 146.4 111.4 147.5C112.8 149.4 112.9 149.3 116.4 145.7C120.3 141.6 122.6 138 121.3 138.1C120.9 138.1 119.2 140 117.5 142.2C113.3 148 112 148.1 112 142.8L111.9 138.5L109.5 141.3C106.5 144.7 104.6 144.1 106.1 140.3C106.6 138.9 106.8 137.5 106.6 137.2C106.3 136.9 105.6 137.9 105 139.4Z" fill="#0F0F0F"/>
<path d="M145.6 140.4C144.2 147.7 147.8 149.1 153.5 143.3C155.4 141.3 157 139.2 157 138.7C157 138.1 155.2 139.6 153.1 141.9C148.3 147.1 146.4 146.9 146.8 141.2C147.2 136.2 146.5 135.7 145.6 140.4Z" fill="#0F0F0F"/>
</svg>
