<svg width="33" height="38" viewBox="0 0 33 38" fill="none" xmlns="http://www.w3.org/2000/svg">
<rect x="21.8365" y="21.396" width="8.76871" height="16.3793" transform="rotate(-155.501 21.8365 21.396)" fill="#EDAC1A" stroke="#B63E04" stroke-width="0.165447"/>
<path d="M17.8802 16.2726C18.1271 16.038 18.1301 15.815 18.4387 16.1398C18.7474 16.4645 18.7729 16.7175 18.5261 16.9521C18.2792 17.1868 18.2762 17.4097 17.9676 17.085C17.6589 16.7602 17.6334 16.5073 17.8802 16.2726Z" fill="#B63E04"/>
<path d="M18.7443 12.6187C18.9912 12.3841 18.8083 12.566 19.117 12.8908C19.4648 13.0166 19.637 13.0636 19.3901 13.2982C19.1432 13.5329 18.8958 13.8589 18.7512 13.4666C18.5263 13.1098 18.6551 12.645 18.7443 12.6187Z" fill="#B63E04"/>
<path d="M24.0164 11.092C24.1127 11.0005 24.0426 11.0727 24.2584 11.2998C24.4646 11.4231 24.5642 11.4756 24.468 11.5671C24.3717 11.6586 24.2892 11.8005 24.151 11.5614C23.9752 11.3296 23.9726 11.0927 24.0164 11.092Z" fill="#B63E04"/>
<path d="M21.6704 6.70235C21.7667 6.61084 21.6966 6.68309 21.9125 6.91018C22.1186 7.03344 22.2183 7.08598 22.122 7.17749C22.0257 7.26899 21.9433 7.41089 21.8051 7.17183C21.6292 6.93996 21.6266 6.70306 21.6704 6.70235Z" fill="#B63E04"/>
<path d="M22.9486 5.57159C22.9394 5.43908 22.9643 5.28143 23.2768 5.25966C23.5031 5.17921 23.5933 5.39353 23.6025 5.52603C23.6117 5.65853 23.6686 5.81247 23.3963 5.76677C23.1055 5.75468 22.9212 5.60583 22.9486 5.57159Z" fill="#B63E04"/>
<path d="M19.5237 8.28612C19.62 8.19462 19.5499 8.26686 19.7657 8.49395C19.9719 8.61721 20.0715 8.66975 19.9753 8.76126C19.879 8.85276 19.7965 8.99466 19.6583 8.7556C19.4825 8.52373 19.4799 8.28683 19.5237 8.28612Z" fill="#B63E04"/>
<path d="M24.3904 7.77377C24.583 7.59077 24.4428 7.73526 24.8745 8.18943C25.2868 8.43596 25.4861 8.54105 25.2936 8.72405C25.101 8.90706 24.9361 9.19086 24.6597 8.71274C24.308 8.24901 24.3027 7.77519 24.3904 7.77377Z" fill="#B63E04"/>
<path d="M21.3876 18.4041C21.6805 18.5779 21.4558 18.4513 21.2271 18.8366C21.2004 19.2056 21.202 19.384 20.9091 19.2101C20.6162 19.0363 20.2353 18.8867 20.5736 18.641C20.8558 18.3276 21.3382 18.3253 21.3876 18.4041Z" fill="#B63E04"/>
<path d="M21.5258 15.065C21.608 14.9868 21.609 14.9125 21.7119 15.0207C21.8148 15.129 21.8233 15.2133 21.741 15.2915C21.6587 15.3697 21.6577 15.4441 21.5549 15.3358C21.452 15.2275 21.4435 15.1432 21.5258 15.065Z" fill="#B63E04"/>
<path d="M21.3811 11.5505C21.4634 11.4723 21.4643 11.398 21.5672 11.5062C21.6701 11.6145 21.6786 11.6988 21.5963 11.777C21.514 11.8552 21.5131 11.9296 21.4102 11.8213C21.3073 11.7131 21.2988 11.6287 21.3811 11.5505Z" fill="#B63E04"/>
<path d="M16.3799 14.9342C16.4622 14.8559 16.4632 14.7816 16.5661 14.8899C16.669 14.9981 16.6775 15.0824 16.5952 15.1607C16.5129 15.2389 16.5119 15.3132 16.409 15.2049C16.3061 15.0967 16.2976 15.0124 16.3799 14.9342Z" fill="#B63E04"/>
<rect x="21.3261" y="18.1946" width="8.76871" height="16.3793" transform="rotate(171.351 21.3261 18.1946)" fill="#EDAC1A" stroke="#B63E04" stroke-width="0.165447"/>
<path d="M15.2122 16.0682C15.2906 15.7368 15.1711 15.5485 15.6072 15.6516C16.0432 15.7548 16.2029 15.9526 16.1245 16.284C16.0461 16.6155 16.1655 16.8038 15.7295 16.7007C15.2935 16.5975 15.1338 16.3997 15.2122 16.0682Z" fill="#B63E04"/>
<path d="M13.9377 12.5366C14.0161 12.2051 13.9624 12.4574 14.3984 12.5605C14.7585 12.4757 14.9283 12.4209 14.8499 12.7523C14.7715 13.0838 14.7427 13.492 14.4071 13.2426C14.0236 13.0669 13.8773 12.6073 13.9377 12.5366Z" fill="#B63E04"/>
<path d="M17.5169 8.37542C17.5475 8.24617 17.5283 8.34497 17.8332 8.41709C18.0732 8.40756 18.1854 8.39706 18.1548 8.52631C18.1242 8.65557 18.1328 8.81946 17.8864 8.69487C17.6123 8.5969 17.4806 8.39999 17.5169 8.37542Z" fill="#B63E04"/>
<path d="M13.1524 5.98294C13.183 5.85368 13.1639 5.95248 13.4687 6.0246C13.7087 6.01507 13.8209 6.00457 13.7903 6.13383C13.7598 6.26308 13.7683 6.42698 13.5219 6.30239C13.2479 6.20442 13.1161 6.0075 13.1524 5.98294Z" fill="#B63E04"/>
<path d="M13.6043 4.3373C13.5241 4.23141 13.4588 4.08579 13.7085 3.89667C13.854 3.70555 14.0467 3.8357 14.1269 3.94159C14.2071 4.04748 14.3389 4.14526 14.0859 4.2559C13.8358 4.40478 13.6001 4.38094 13.6043 4.3373Z" fill="#B63E04"/>
<path d="M12.2211 8.48285C12.2517 8.35359 12.2325 8.45239 12.5374 8.52451C12.7774 8.51498 12.8896 8.50448 12.859 8.63373C12.8284 8.76299 12.837 8.92688 12.5905 8.80229C12.3165 8.70432 12.1848 8.50741 12.2211 8.48285Z" fill="#B63E04"/>
<path d="M16.0156 5.39272C16.0768 5.13421 16.0384 5.33182 16.6482 5.47605C17.1282 5.45699 17.3526 5.43599 17.2914 5.6945C17.2303 5.95301 17.2474 6.2808 16.7545 6.03162C16.2065 5.83568 15.943 5.44185 16.0156 5.39272Z" fill="#B63E04"/>
<path d="M19.3143 15.9349C19.6546 15.9203 19.3972 15.9372 19.4163 16.3848C19.5958 16.7084 19.6946 16.8569 19.3544 16.8715C19.0141 16.8861 18.6133 16.9691 18.7622 16.5785C18.8272 16.1617 19.2298 15.896 19.3143 15.9349Z" fill="#B63E04"/>
<path d="M17.6041 13.0638C17.6302 12.9533 17.5904 12.8905 17.7357 12.9249C17.8811 12.9593 17.9343 13.0252 17.9082 13.1357C17.882 13.2462 17.9219 13.309 17.7765 13.2746C17.6312 13.2402 17.578 13.1743 17.6041 13.0638Z" fill="#B63E04"/>
<path d="M15.5612 10.2004C15.5873 10.0899 15.5475 10.0271 15.6928 10.0615C15.8382 10.0959 15.8914 10.1618 15.8653 10.2723C15.8391 10.3828 15.879 10.4456 15.7336 10.4112C15.5883 10.3768 15.5351 10.3109 15.5612 10.2004Z" fill="#B63E04"/>
<path d="M13.2241 15.768C13.2503 15.6575 13.2105 15.5948 13.3558 15.6292C13.5011 15.6635 13.5544 15.7295 13.5282 15.84C13.5021 15.9504 13.5419 16.0132 13.3966 15.9788C13.2512 15.9445 13.198 15.8785 13.2241 15.768Z" fill="#B63E04"/>
<rect x="17.2932" y="16.5713" width="8.76871" height="16.3793" transform="rotate(145.747 17.2932 16.5713)" fill="#EDAC1A" stroke="#B63E04" stroke-width="0.165447"/>
<path d="M10.8608 17.2959C10.7882 16.9631 10.5991 16.8449 11.0369 16.7495C11.4747 16.6541 11.7042 16.7635 11.7767 17.0962C11.8492 17.429 12.0383 17.5472 11.6006 17.6426C11.1628 17.738 10.9333 17.6286 10.8608 17.2959Z" fill="#B63E04"/>
<path d="M8.1852 14.6617C8.11267 14.3289 8.1733 14.5796 8.61106 14.4842C8.89913 14.2521 9.0286 14.1293 9.10113 14.4621C9.17366 14.7948 9.32403 15.1755 8.91364 15.0956C8.49189 15.1028 8.16133 14.7516 8.1852 14.6617Z" fill="#B63E04"/>
<path d="M9.61479 9.36245C9.5865 9.23268 9.61192 9.33006 9.91802 9.26335C10.1303 9.15104 10.227 9.09309 10.2553 9.22287C10.2835 9.35264 10.3621 9.49675 10.086 9.49088C9.79656 9.52095 9.59266 9.4003 9.61479 9.36245Z" fill="#B63E04"/>
<path d="M4.64502 9.09094C4.61673 8.96116 4.64215 9.05855 4.94825 8.99183C5.16058 8.87952 5.2572 8.82158 5.28548 8.95135C5.31376 9.08113 5.3923 9.22523 5.11624 9.21936C4.82678 9.24943 4.62288 9.12878 4.64502 9.09094Z" fill="#B63E04"/>
<path d="M4.34136 7.41165C4.22329 7.35081 4.10143 7.24773 4.24494 6.96925C4.29357 6.73402 4.52356 6.76813 4.64162 6.82897C4.75969 6.88982 4.92081 6.92104 4.74047 7.13014C4.57931 7.37245 4.35644 7.45282 4.34136 7.41165Z" fill="#B63E04"/>
<path d="M4.88542 11.7479C4.85713 11.6181 4.88255 11.7155 5.18865 11.6488C5.40098 11.5364 5.4976 11.4785 5.52588 11.6083C5.55417 11.7381 5.63271 11.8822 5.35664 11.8763C5.06719 11.9064 4.86329 11.7857 4.88542 11.7479Z" fill="#B63E04"/>
<path d="M6.97201 7.32137C6.91544 7.06182 6.96627 7.25659 7.57847 7.12316C8.00313 6.89854 8.19637 6.78265 8.25294 7.0422C8.30951 7.30175 8.46659 7.58996 7.91446 7.57822C7.33555 7.63836 6.92774 7.39706 6.97201 7.32137Z" fill="#B63E04"/>
<path d="M14.5024 15.403C14.803 15.2428 14.5782 15.3692 14.7889 15.7646C15.0905 15.9788 15.2439 16.0701 14.9433 16.2302C14.6427 16.3904 14.3173 16.6385 14.2827 16.2219C14.1612 15.8179 14.4095 15.4044 14.5024 15.403Z" fill="#B63E04"/>
<path d="M11.7194 13.5528C11.6953 13.4418 11.6322 13.4024 11.7781 13.3706C11.9241 13.3388 12.0006 13.3753 12.0247 13.4862C12.0489 13.5971 12.112 13.6365 11.966 13.6683C11.8201 13.7001 11.7436 13.6637 11.7194 13.5528Z" fill="#B63E04"/>
<path d="M8.63976 11.8533C8.61558 11.7424 8.55255 11.703 8.69847 11.6712C8.84439 11.6394 8.92089 11.6759 8.94507 11.7868C8.96924 11.8977 9.03228 11.9371 8.88636 11.9689C8.74044 12.0007 8.66393 11.9642 8.63976 11.8533Z" fill="#B63E04"/>
<path d="M8.93817 17.8842C8.914 17.7733 8.85096 17.7339 8.99688 17.7021C9.1428 17.6703 9.21931 17.7067 9.24348 17.8177C9.26766 17.9286 9.33069 17.968 9.18477 17.9998C9.03885 18.0316 8.96235 17.9951 8.93817 17.8842Z" fill="#B63E04"/>
<path d="M3.92885 14.1745H25.5208C25.5208 14.1745 27.6601 21.7735 25.5208 25.7604C21.5339 33.1905 7.91573 33.1905 3.92885 25.7604C1.78955 21.7735 3.92885 14.1745 3.92885 14.1745Z" fill="#305041"/>
<path d="M8.57282 21.3359C8.61517 21.3853 8.64517 21.4224 8.66282 21.4471C8.79342 21.6024 8.88695 21.7365 8.94342 21.8494C9.00342 21.9589 9.03342 22.1 9.03342 22.273C9.03342 22.4424 8.99813 22.6136 8.92754 22.7865C8.86048 22.9559 8.76165 23.1024 8.63106 23.226C8.50399 23.346 8.35222 23.4236 8.17575 23.4589C7.96044 23.5048 7.77691 23.5277 7.62514 23.5277C7.52278 23.5277 7.42219 23.5224 7.32336 23.5119L7.16453 23.5066V23.5489C7.16453 23.563 7.161 23.5754 7.15394 23.586C7.14688 23.593 7.13982 23.6054 7.13277 23.623V24.7295C7.13277 24.7295 7.12218 24.7401 7.101 24.7613C7.02688 24.7613 6.94393 24.749 6.85217 24.7243C6.76393 24.7031 6.6951 24.6731 6.64569 24.6342C6.64569 24.4295 6.63334 24.1825 6.60863 23.893C6.58745 23.5683 6.57686 23.3248 6.57686 23.1624C6.57686 23.0918 6.58392 22.9965 6.59804 22.8765C6.60863 22.8059 6.61392 22.7459 6.61392 22.6965C6.61392 22.6401 6.60686 22.5942 6.59275 22.5589C6.58216 22.5201 6.57686 22.4936 6.57686 22.4795C6.57686 22.4653 6.58216 22.4459 6.59275 22.4212C6.60686 22.3965 6.61392 22.3542 6.61392 22.2942C6.61392 22.2624 6.60686 22.2289 6.59275 22.1936C6.57863 22.1583 6.57157 22.1353 6.57157 22.1247C6.57157 22.0894 6.57863 22.04 6.59275 21.9765C6.60686 21.913 6.61392 21.8653 6.61392 21.8336C6.61392 21.7877 6.6051 21.7577 6.58745 21.7436C6.5698 21.7259 6.5451 21.7153 6.51333 21.7118C6.48509 21.7047 6.47098 21.6941 6.47098 21.68C6.47098 21.6518 6.48156 21.6271 6.50274 21.6059C6.52392 21.5812 6.54863 21.5671 6.57686 21.5635V21.2406C6.57686 21.2265 6.59451 21.2071 6.62981 21.1824C6.66863 21.1541 6.69334 21.14 6.70393 21.14H7.42925L7.49278 21.1082H8.07515C8.11751 21.1224 8.17398 21.1506 8.24457 21.1929C8.35399 21.26 8.4634 21.3077 8.57282 21.3359ZM7.68337 21.2406C7.60219 21.2406 7.53337 21.2582 7.4769 21.2935C7.42395 21.3288 7.36395 21.3871 7.29689 21.4682C7.31807 21.4682 7.36042 21.4559 7.42395 21.4312C7.48748 21.4065 7.52102 21.3959 7.52454 21.3994C7.51043 21.4171 7.48925 21.4365 7.46101 21.4577C7.43631 21.4753 7.41336 21.4877 7.39219 21.4947C7.41689 21.5018 7.4416 21.5159 7.46631 21.5371C7.49101 21.5583 7.52102 21.5688 7.55631 21.5688L7.61984 21.5635L7.55631 21.5265C7.60572 21.5018 7.67632 21.4894 7.76808 21.4894L7.88985 21.4947L7.9428 21.4365C7.93927 21.44 7.9375 21.4453 7.9375 21.4524C7.9375 21.4665 7.95162 21.4771 7.97986 21.4841C8.00809 21.4912 8.0328 21.4982 8.05398 21.5053C8.07515 21.5088 8.09104 21.5106 8.10162 21.5106C8.20398 21.5247 8.26222 21.5424 8.27634 21.5635L8.24457 21.5953C8.33281 21.6659 8.38575 21.71 8.4034 21.7277C8.41752 21.7383 8.42987 21.7559 8.44046 21.7806C8.45458 21.8018 8.46693 21.8194 8.47752 21.8336C8.49164 21.8441 8.51282 21.8512 8.54105 21.8547L8.46693 21.9183C8.47752 21.9253 8.50046 21.9377 8.53576 21.9553C8.57458 21.973 8.60106 21.9959 8.61517 22.0242C8.62929 22.0524 8.63635 22.0894 8.63635 22.1353C8.63635 22.1636 8.63459 22.1795 8.63106 22.183C8.69106 22.1442 8.73871 22.1106 8.774 22.0824C8.81283 22.0506 8.83224 22.0136 8.83224 21.9712C8.83224 21.8936 8.81636 21.8547 8.78459 21.8547C8.774 21.8547 8.75635 21.8618 8.73165 21.8759C8.70694 21.89 8.68753 21.9041 8.67341 21.9183L8.66812 21.8971C8.66812 21.89 8.67871 21.8689 8.69988 21.8336C8.72459 21.7947 8.73694 21.77 8.73694 21.7594C8.73694 21.7524 8.72106 21.7259 8.68929 21.68C8.65753 21.6341 8.62047 21.5918 8.57811 21.553C8.53576 21.5141 8.49164 21.4947 8.44576 21.4947L8.50399 21.4312C8.36634 21.3571 8.23751 21.3077 8.11751 21.2829C8.00103 21.2547 7.85632 21.2406 7.68337 21.2406ZM6.79922 21.6588C6.85923 21.6588 6.94393 21.6235 7.05335 21.553C7.1663 21.4788 7.24748 21.4171 7.29689 21.3677C7.23336 21.3677 7.1663 21.3853 7.09571 21.4206C7.02511 21.4559 6.93864 21.5035 6.83628 21.5635H6.79922C6.83452 21.5212 6.87687 21.4841 6.92629 21.4524C6.9757 21.4171 7.02335 21.3853 7.06923 21.3571C7.11512 21.3288 7.14688 21.3094 7.16453 21.2988V21.2565C7.03394 21.2565 6.92805 21.2618 6.84687 21.2724C6.76569 21.2829 6.7251 21.3147 6.7251 21.3677H6.8257C6.8257 21.3747 6.82746 21.38 6.83099 21.3835C6.83452 21.3871 6.83628 21.3924 6.83628 21.3994C6.83628 21.403 6.81864 21.4224 6.78334 21.4577C6.75157 21.4894 6.7251 21.5124 6.70393 21.5265C6.71099 21.5794 6.71981 21.6147 6.7304 21.6324C6.74452 21.65 6.76746 21.6588 6.79922 21.6588ZM7.9428 21.4365L7.94809 21.4312L7.9428 21.4365ZM7.68337 22.9665V23.0036C7.72926 22.9718 7.79632 22.9524 7.88456 22.9454C7.97633 22.9383 8.03103 22.933 8.04868 22.9295C8.16516 22.9224 8.2534 22.873 8.3134 22.7812C8.37693 22.6895 8.42811 22.5659 8.46693 22.4106L8.50399 22.2518C8.50399 22.1883 8.4687 22.093 8.39811 21.9659C8.32752 21.8353 8.26575 21.7559 8.21281 21.7277C8.16339 21.703 8.05574 21.6906 7.88985 21.6906L7.61984 21.6959C7.5316 21.6994 7.43807 21.7047 7.33924 21.7118C7.24042 21.7153 7.17159 21.7206 7.13277 21.7277L7.101 21.7594V21.8653V22.0242L7.11688 22.3206C7.12747 22.5536 7.13806 22.7265 7.14865 22.8395C7.15924 22.9489 7.17512 23.0036 7.1963 23.0036H7.6622L7.68337 22.9665ZM6.74099 21.7594C6.74099 21.77 6.74452 21.7824 6.75157 21.7965C6.75863 21.8071 6.76746 21.8159 6.77805 21.823C6.84158 21.8018 6.87334 21.7665 6.87334 21.7171C6.84158 21.7171 6.81158 21.7206 6.78334 21.7277C6.7551 21.7347 6.74099 21.7453 6.74099 21.7594ZM6.96864 21.7859C6.92276 21.7859 6.86981 21.8141 6.80981 21.8706C6.74981 21.9236 6.71981 21.9747 6.71981 22.0242H6.93688C6.93688 22.0136 6.94041 21.9836 6.94746 21.9341C6.95805 21.8847 6.96511 21.8353 6.96864 21.7859ZM6.74099 22.2147C6.7904 22.1759 6.82217 22.1318 6.83628 22.0824C6.8257 22.0789 6.81334 22.0771 6.79922 22.0771C6.77452 22.0771 6.75687 22.0877 6.74628 22.1089C6.73569 22.1265 6.7304 22.1459 6.7304 22.1671L6.74099 22.2147ZM6.97394 22.2412C6.97394 22.1706 6.96158 22.1177 6.93688 22.0824C6.89452 22.1142 6.8557 22.1636 6.8204 22.2306C6.78864 22.2942 6.77275 22.3524 6.77275 22.4053C6.77275 22.4583 6.7904 22.4848 6.8257 22.4848C6.78687 22.4953 6.7604 22.5183 6.74628 22.5536C6.73569 22.5853 6.7304 22.6277 6.7304 22.6806C6.76569 22.6806 6.79393 22.6701 6.81511 22.6489C6.83628 22.6242 6.85923 22.5871 6.88393 22.5377C6.90864 22.4742 6.93688 22.4318 6.96864 22.4106L6.97394 22.2412ZM8.65223 22.3365C8.74047 22.3365 8.8093 22.3295 8.85871 22.3153C8.90813 22.3012 8.93283 22.2659 8.93283 22.2095C8.93283 22.1742 8.92577 22.1494 8.91165 22.1353C8.90107 22.1212 8.88165 22.1142 8.85342 22.1142C8.79694 22.1142 8.7493 22.1389 8.71047 22.1883C8.67165 22.2342 8.65223 22.2836 8.65223 22.3365ZM8.71047 22.3736C8.68223 22.3736 8.654 22.3806 8.62576 22.3948C8.60106 22.4053 8.5887 22.423 8.5887 22.4477C8.67694 22.4477 8.73694 22.4248 8.76871 22.3789L8.71047 22.3736ZM8.80047 22.6383C8.82518 22.6383 8.84812 22.6083 8.8693 22.5483C8.89048 22.4848 8.90107 22.4389 8.90107 22.4106H8.85871C8.81636 22.4283 8.75812 22.4565 8.684 22.4953C8.60988 22.5342 8.57282 22.5606 8.57282 22.5748V22.6383H8.80047ZM6.87334 22.4795C6.86276 22.483 6.84864 22.4848 6.83099 22.4848H6.8257C6.83628 22.4812 6.85217 22.4795 6.87334 22.4795ZM7.011 22.723C7.011 22.6806 7.00747 22.6471 7.00041 22.6224C6.99688 22.5977 6.98629 22.5695 6.96864 22.5377C6.91217 22.5836 6.85923 22.6436 6.80981 22.7177C6.76393 22.7883 6.74099 22.8536 6.74099 22.9136C6.83275 22.9136 6.89982 22.903 6.94217 22.8818C6.98805 22.8571 7.011 22.8042 7.011 22.723ZM8.40869 23.1677C8.44046 23.1677 8.48811 23.1413 8.55164 23.0883C8.6187 23.0318 8.67694 22.9665 8.72635 22.8924C8.7793 22.8183 8.80577 22.7512 8.80577 22.6912C8.72459 22.6912 8.65047 22.7124 8.58341 22.7548C8.51635 22.7971 8.48282 22.8554 8.48282 22.9295H8.51988C8.51988 22.9612 8.44576 22.9965 8.29751 23.0354C8.1528 23.0707 7.99044 23.1024 7.81044 23.1307C7.63043 23.1589 7.50866 23.173 7.44513 23.173C7.44513 23.1871 7.44866 23.2065 7.45572 23.2313C7.46278 23.2524 7.47513 23.263 7.49278 23.263H7.72043L7.6622 23.1942H7.68337C7.70102 23.1977 7.73279 23.203 7.77867 23.2101C7.82456 23.2136 7.87044 23.2207 7.91632 23.2313C7.90574 23.2348 7.90044 23.2401 7.90044 23.2471C7.90044 23.2683 7.9375 23.2824 8.01162 23.2895C8.08574 23.2966 8.12104 23.3001 8.11751 23.3001C8.23398 23.3001 8.29222 23.2771 8.29222 23.2313H8.11221C8.1228 23.2207 8.14221 23.2083 8.17045 23.1942C8.19869 23.1801 8.22339 23.1695 8.24457 23.1624L8.40869 23.1677ZM6.90511 22.9612C6.83452 22.9612 6.78334 22.9736 6.75157 22.9983C6.71981 23.0195 6.70393 23.0671 6.70393 23.1413C6.75334 23.1413 6.79746 23.1271 6.83628 23.0989C6.87864 23.0671 6.92276 23.023 6.96864 22.9665L6.90511 22.9612ZM6.79922 23.2313C6.84864 23.2313 6.93688 23.1995 7.06394 23.136C7.05688 23.1218 7.04806 23.1042 7.03747 23.083C7.03041 23.0618 7.02688 23.046 7.02688 23.0354H7.0057L6.79922 23.2313ZM7.101 23.3213C7.15041 23.3424 7.21042 23.3548 7.28101 23.3583C7.35513 23.3583 7.40454 23.3583 7.42925 23.3583L7.32866 23.263L7.39219 23.2313C7.39219 23.2065 7.37101 23.1942 7.32866 23.1942C7.26865 23.2013 7.21571 23.2136 7.16983 23.2313C7.12394 23.2454 7.101 23.2754 7.101 23.3213ZM7.03217 23.2313C7.00394 23.2383 6.96158 23.2489 6.90511 23.263C6.84864 23.2736 6.80628 23.2913 6.77805 23.316C6.75334 23.3407 6.74099 23.3777 6.74099 23.4271L6.73569 23.4642C6.73569 23.503 6.74981 23.5224 6.77805 23.5224L7.03217 23.263V23.2313ZM7.68337 23.3583C7.67631 23.3442 7.65337 23.3354 7.61455 23.3318C7.57572 23.3248 7.54572 23.3213 7.52454 23.3213C7.54219 23.3389 7.55808 23.3513 7.57219 23.3583C7.58631 23.3618 7.60925 23.3636 7.64102 23.3636L7.68337 23.3583ZM6.96864 23.4271C6.94393 23.4271 6.9104 23.4642 6.86805 23.5383C6.8257 23.6089 6.80275 23.646 6.79922 23.6495C6.83099 23.6495 6.86628 23.6407 6.90511 23.623C6.94746 23.6054 6.96864 23.593 6.96864 23.586V23.4271ZM6.88923 23.7183C6.8504 23.7183 6.8204 23.7219 6.79922 23.7289C6.77805 23.736 6.76746 23.7554 6.76746 23.7872C6.76746 23.7977 6.77099 23.8066 6.77805 23.8136C6.83805 23.7854 6.8804 23.7536 6.90511 23.7183H6.88923ZM6.77805 23.9513C6.85923 23.9513 6.91393 23.9389 6.94217 23.9142C6.97041 23.886 6.98452 23.8313 6.98452 23.7501H6.93688L6.77805 23.9195V23.9513ZM6.96864 23.946C6.95099 23.953 6.92099 23.9636 6.87864 23.9778C6.83981 23.9883 6.81158 24.0042 6.79393 24.0254C6.77981 24.043 6.77275 24.0713 6.77275 24.1101L6.77805 24.1789C6.78511 24.1683 6.81511 24.1383 6.86805 24.0889C6.92452 24.0395 6.95805 23.9919 6.96864 23.946ZM6.87334 24.306C6.92982 24.2848 6.96688 24.2566 6.98452 24.2213C7.00217 24.1825 7.011 24.1278 7.011 24.0572C6.96511 24.0572 6.92629 24.0783 6.89452 24.1207C6.86628 24.1595 6.83452 24.2195 6.79922 24.3007C6.78158 24.3431 6.76216 24.3836 6.74099 24.4225C6.71981 24.4613 6.69687 24.4895 6.67216 24.5072C6.71099 24.546 6.73393 24.5672 6.74099 24.5707C6.77981 24.5707 6.82922 24.5389 6.88923 24.4754C6.94923 24.4119 6.97923 24.3554 6.97923 24.306H6.87334ZM6.90511 24.5707C6.93688 24.5707 6.95452 24.5619 6.95805 24.5442C6.96511 24.5266 6.96864 24.5072 6.96864 24.486C6.96864 24.4613 6.96864 24.4454 6.96864 24.4384C6.94393 24.4489 6.92805 24.4719 6.92099 24.5072C6.91393 24.5425 6.90864 24.5637 6.90511 24.5707ZM11.6169 23.4907C11.6275 23.5966 11.6522 23.7024 11.691 23.8083C11.7334 23.9142 11.7969 24.0607 11.8816 24.2478C11.9381 24.3642 11.9893 24.4807 12.0351 24.5972C12.0351 24.6395 12.0193 24.6678 11.9875 24.6819C11.9592 24.696 11.9169 24.7031 11.8604 24.7031C11.8287 24.7031 11.7987 24.6978 11.7704 24.6872C11.7422 24.6766 11.7245 24.6695 11.7175 24.666C11.6681 24.6413 11.6239 24.629 11.5851 24.629C11.5675 24.629 11.541 24.6342 11.5057 24.6448C11.4739 24.6554 11.451 24.6607 11.4369 24.6607C11.4192 24.6607 11.3998 24.6395 11.3786 24.5972C11.361 24.5513 11.338 24.4842 11.3098 24.396C11.2992 24.3713 11.2886 24.3466 11.278 24.3219C11.271 24.2936 11.2622 24.2654 11.2516 24.2372C11.2445 24.2231 11.2216 24.1648 11.1827 24.0625C11.1439 23.9601 11.0945 23.8719 11.0345 23.7977C10.978 23.7236 10.9198 23.6866 10.8598 23.6866C10.7892 23.6866 10.7221 23.6919 10.6586 23.7024C10.6339 23.706 10.6039 23.7095 10.5686 23.713C10.5368 23.7166 10.498 23.7183 10.4521 23.7183C10.3533 23.7183 10.251 23.713 10.1451 23.7024C9.93329 23.6919 9.81505 23.6866 9.79035 23.6866C9.75505 23.8207 9.72505 23.923 9.70034 23.9936C9.67564 24.0607 9.62799 24.1754 9.5574 24.3378C9.54328 24.3731 9.53269 24.4189 9.52563 24.4754C9.51504 24.5495 9.49916 24.606 9.47798 24.6448C9.46033 24.6837 9.42857 24.7031 9.38268 24.7031C9.31915 24.7031 9.26444 24.6978 9.21856 24.6872C9.17268 24.6801 9.11091 24.6625 9.03326 24.6342C9.03326 24.5742 9.04561 24.5072 9.07032 24.4331C9.09503 24.3554 9.13209 24.2548 9.1815 24.1313L9.22915 24.0148C9.25738 23.9301 9.28562 23.8348 9.31386 23.7289C9.34562 23.623 9.3668 23.5507 9.37739 23.5119C9.43033 23.2895 9.47975 23.1183 9.52563 22.9983C9.55034 22.9312 9.5874 22.8412 9.63681 22.7283C9.6474 22.7001 9.67034 22.6453 9.70564 22.5642C9.74093 22.4795 9.76917 22.3948 9.79035 22.31L9.81682 22.2836C9.82388 22.2589 9.8327 22.213 9.84329 22.1459C9.85388 22.0753 9.87152 22.0171 9.89623 21.9712C9.92094 21.9253 9.9527 21.9024 9.99153 21.9024C9.99153 21.8459 10.0233 21.7118 10.0868 21.5C10.1539 21.2882 10.2051 21.1682 10.2404 21.14C10.4239 21.14 10.5457 21.1435 10.6057 21.1506C10.6692 21.1576 10.7186 21.1824 10.7539 21.2247C10.7892 21.2671 10.8263 21.3482 10.8651 21.4682L10.9286 21.5953L10.9233 21.643C10.9445 21.643 10.9604 21.6571 10.971 21.6853C10.9851 21.7136 10.9992 21.7559 11.0133 21.8124C11.0274 21.8724 11.0416 21.9236 11.0557 21.9659C11.0733 22.0047 11.0963 22.0347 11.1245 22.0559C11.1175 22.0559 11.1104 22.0594 11.1033 22.0665C11.0963 22.0736 11.091 22.0789 11.0875 22.0824C11.0875 22.1071 11.098 22.1442 11.1192 22.1936C11.1439 22.2359 11.1563 22.2747 11.1563 22.31H11.2251C11.218 22.3171 11.211 22.3277 11.2039 22.3418C11.1969 22.3559 11.1933 22.3683 11.1933 22.3789C11.1933 22.3965 11.2145 22.4336 11.2569 22.49C11.2992 22.5536 11.3204 22.5924 11.3204 22.6065L11.3416 22.723C11.3628 22.8677 11.3892 22.9718 11.421 23.0354C11.4492 23.0883 11.4792 23.1271 11.511 23.1518C11.5357 23.173 11.5551 23.203 11.5692 23.2418C11.5869 23.2807 11.6028 23.3636 11.6169 23.4907ZM10.1451 22.0559C10.0533 22.0559 10.0074 22.0947 10.0074 22.1724L10.0127 22.2095C10.1009 22.1847 10.1839 22.1406 10.2615 22.0771C10.3392 22.0136 10.3992 21.9394 10.4415 21.8547L10.8333 21.7224C10.8333 21.6024 10.798 21.5088 10.7274 21.4418C10.6604 21.3747 10.6268 21.3394 10.6268 21.3359L10.5633 21.3412C10.5527 21.3412 10.5227 21.3306 10.4733 21.3094C10.4274 21.2847 10.3939 21.2724 10.3727 21.2724C10.341 21.2724 10.318 21.29 10.3039 21.3253C10.2898 21.3606 10.2774 21.4118 10.2668 21.4788C10.2633 21.5177 10.2562 21.5547 10.2457 21.59C10.2386 21.6253 10.2262 21.6483 10.2086 21.6588H10.341C10.3268 21.6835 10.3074 21.7047 10.2827 21.7224C10.2615 21.7365 10.2404 21.7488 10.2192 21.7594C10.1698 21.7841 10.1327 21.8124 10.108 21.8441C10.0868 21.8724 10.0762 21.92 10.0762 21.9871C10.0762 22.0118 10.0798 22.0294 10.0868 22.04C10.0974 22.0506 10.1168 22.0559 10.1451 22.0559ZM10.5104 21.8865C10.5104 21.9041 10.521 21.9324 10.5421 21.9712C10.5668 22.0065 10.5863 22.0242 10.6004 22.0242C10.6251 22.0242 10.6727 21.9853 10.7433 21.9077C10.7857 21.8583 10.8263 21.8194 10.8651 21.7912C10.7063 21.7912 10.588 21.823 10.5104 21.8865ZM10.8969 22.7706C11.0274 22.6612 11.0927 22.5518 11.0927 22.4424C11.0927 22.3789 11.0875 22.3242 11.0769 22.2783C11.0698 22.2324 11.0469 22.2095 11.008 22.2095C10.9939 22.213 10.9763 22.2218 10.9551 22.2359C10.9339 22.25 10.9145 22.2659 10.8969 22.2836L11.0239 22.1512C11.0239 22.1371 11.0045 22.0842 10.9657 21.9924C10.9304 21.9006 10.9074 21.8547 10.8969 21.8547H10.8651L10.6374 22.0824L10.6321 22.1036C10.6321 22.1212 10.6427 22.1389 10.6639 22.1565C10.6886 22.1706 10.7116 22.1795 10.7327 22.183C10.7151 22.1865 10.7045 22.1971 10.701 22.2147C10.6974 22.2324 10.6957 22.25 10.6957 22.2677C10.6957 22.3453 10.7133 22.3842 10.7486 22.3842C10.7592 22.3842 10.7874 22.37 10.8333 22.3418C10.8333 22.3665 10.8263 22.3965 10.8121 22.4318C10.8016 22.4671 10.7963 22.4953 10.7963 22.5165C10.821 22.5165 10.8404 22.5148 10.8545 22.5112C10.8721 22.5077 10.888 22.5042 10.9022 22.5006C10.9516 22.4865 10.9922 22.4795 11.0239 22.4795C11.0133 22.5006 10.9904 22.5183 10.9551 22.5324C10.9233 22.543 10.8986 22.5536 10.881 22.5642C10.8669 22.5748 10.8598 22.5977 10.8598 22.633V22.6648C10.8598 22.7106 10.8722 22.7459 10.8969 22.7706ZM10.1768 22.31C10.1662 22.3383 10.1486 22.3577 10.1239 22.3683C10.0992 22.3789 10.0639 22.3877 10.018 22.3948C9.96153 22.4053 9.91917 22.4195 9.89094 22.4371C9.86623 22.4548 9.85388 22.49 9.85388 22.543C9.85388 22.5501 9.85741 22.5571 9.86447 22.5642C9.87505 22.5712 9.88211 22.5748 9.88564 22.5748C10.1751 22.4053 10.3198 22.2518 10.3198 22.1142H10.2827C10.2615 22.1142 10.2033 22.1477 10.108 22.2147C10.0162 22.2818 9.97035 22.3259 9.97035 22.3471C9.99859 22.3471 10.0339 22.3418 10.0762 22.3312C10.1186 22.3171 10.1521 22.31 10.1768 22.31ZM10.4415 22.1512C10.4133 22.3206 10.3639 22.4918 10.2933 22.6648C10.2262 22.8342 10.1451 22.9895 10.0498 23.1307L10.0445 23.1465C10.0445 23.1995 10.1098 23.226 10.2404 23.226C10.3074 23.226 10.3674 23.2242 10.4204 23.2207C10.4733 23.2171 10.5174 23.2136 10.5527 23.2101C10.6939 23.196 10.7998 23.1889 10.8704 23.1889C10.8704 23.1254 10.8369 23.016 10.7698 22.8607C10.7627 22.8465 10.7486 22.8148 10.7274 22.7654C10.7063 22.7124 10.6957 22.6718 10.6957 22.6436L10.4415 22.1512ZM10.1451 22.4371C10.1062 22.483 10.0445 22.5342 9.95976 22.5906C9.928 22.6118 9.89976 22.633 9.87505 22.6542C9.85035 22.6754 9.83799 22.6948 9.83799 22.7124C9.95447 22.7124 10.0339 22.6965 10.0762 22.6648C10.1186 22.6295 10.1521 22.5536 10.1768 22.4371H10.1451ZM10.9551 22.8183C10.9551 22.8183 10.9586 22.8271 10.9657 22.8448C10.9727 22.8589 10.9833 22.8659 10.9974 22.8659C11.0186 22.8659 11.0522 22.8607 11.098 22.8501C11.1439 22.8395 11.1757 22.8342 11.1933 22.8342L10.9974 22.9348L10.9922 22.9454C10.9922 22.963 10.9992 22.9824 11.0133 23.0036C11.0274 23.0248 11.038 23.0354 11.0451 23.0354C11.098 23.0354 11.1422 23.0124 11.1775 22.9665C11.2128 22.9207 11.2304 22.8712 11.2304 22.8183C11.2304 22.7689 11.2216 22.7159 11.2039 22.6595C11.1863 22.603 11.1598 22.5748 11.1245 22.5748C11.0998 22.6065 11.0575 22.6718 10.9974 22.7706C10.9692 22.7989 10.9551 22.8148 10.9551 22.8183ZM9.81682 22.7706C9.78505 22.7706 9.76034 22.7883 9.7427 22.8236C9.72858 22.8554 9.71622 22.8889 9.70564 22.9242C9.69505 22.9595 9.68799 22.9842 9.68446 22.9983C9.71622 22.9807 9.77093 22.9489 9.84858 22.903C9.92976 22.8536 9.99682 22.8095 10.0498 22.7706H9.81682ZM10.0127 22.8659C9.99859 22.873 9.97565 22.8836 9.94388 22.8977C9.91211 22.9118 9.88741 22.9295 9.86976 22.9507C9.85211 22.9683 9.84329 22.9912 9.84329 23.0195C9.87858 23.0195 9.91564 23.0054 9.95447 22.9771C9.99682 22.9489 10.018 22.9189 10.018 22.8871L10.0127 22.8659ZM11.0875 23.586C11.1016 23.6142 11.1157 23.6336 11.1298 23.6442C11.1439 23.6513 11.1651 23.6548 11.1933 23.6548C11.2533 23.6548 11.301 23.6301 11.3363 23.5807C11.3716 23.5277 11.3892 23.4713 11.3892 23.4113C11.3892 23.3477 11.3839 23.2913 11.3733 23.2418C11.3628 23.1924 11.3486 23.1413 11.331 23.0883C11.3133 23.0318 11.301 22.9912 11.2939 22.9665C11.2516 22.9665 11.211 22.9824 11.1722 23.0142C11.1333 23.046 11.1051 23.0848 11.0875 23.1307H11.2516V23.1624C11.2375 23.1801 11.1933 23.2313 11.1192 23.316C11.0451 23.3971 10.9922 23.466 10.9604 23.5224L11.0239 23.5277C11.0663 23.5277 11.1227 23.5101 11.1933 23.4748C11.2639 23.443 11.3169 23.4271 11.3522 23.4271C11.3133 23.4766 11.2251 23.5295 11.0875 23.586ZM9.85388 23.0671C9.76211 23.0671 9.69328 23.0812 9.6474 23.1095C9.60504 23.1342 9.58387 23.1854 9.58387 23.263L9.58916 23.3266C9.61034 23.3124 9.64387 23.2913 9.68975 23.263C9.73917 23.2348 9.77976 23.2048 9.81152 23.173C9.84682 23.1413 9.87152 23.106 9.88564 23.0671H9.85388ZM11.1616 23.1995C11.1122 23.1995 11.0875 23.2207 11.0875 23.263L11.1616 23.1995ZM9.79035 23.3901V23.263L9.65269 23.3901H9.79035ZM10.4998 23.5754C10.581 23.5754 10.6516 23.5648 10.7116 23.5436C10.7751 23.5224 10.8263 23.4836 10.8651 23.4271C10.8545 23.406 10.828 23.3901 10.7857 23.3795C10.7469 23.3654 10.7169 23.3583 10.6957 23.3583C10.6745 23.3583 10.6445 23.3777 10.6057 23.4166C10.5668 23.4519 10.5439 23.4766 10.5368 23.4907V23.4271C10.4804 23.4519 10.4363 23.473 10.4045 23.4907C10.3762 23.5083 10.3621 23.5348 10.3621 23.5701L10.4998 23.5754ZM9.89623 23.5542C9.9527 23.5542 10.0074 23.5471 10.0604 23.533C10.1168 23.5189 10.1451 23.4924 10.1451 23.4536C10.1451 23.4324 10.138 23.4166 10.1239 23.406C10.1133 23.3918 10.0992 23.3848 10.0815 23.3848C10.0709 23.3848 10.0321 23.4024 9.96506 23.4377C9.898 23.4695 9.84858 23.4977 9.81682 23.5224C9.82388 23.5436 9.83976 23.5542 9.86447 23.5542H9.89623ZM10.341 23.4166C10.3057 23.413 10.2739 23.4236 10.2457 23.4483C10.2174 23.4695 10.2033 23.4995 10.2033 23.5383C10.2739 23.5383 10.3427 23.5013 10.4098 23.4271L10.341 23.4166ZM9.52563 23.6177C9.53269 23.6142 9.55916 23.6019 9.60504 23.5807C9.65446 23.556 9.69328 23.526 9.72152 23.4907C9.71446 23.466 9.68799 23.4536 9.6421 23.4536C9.60328 23.4536 9.57328 23.466 9.5521 23.4907C9.53092 23.5154 9.52034 23.5471 9.52034 23.586L9.52563 23.6177ZM10.8545 23.5436C10.9004 23.5436 10.9269 23.5154 10.9339 23.4589C10.881 23.4624 10.8545 23.4907 10.8545 23.5436ZM11.2516 23.8772C11.2516 23.9266 11.271 23.9513 11.3098 23.9513C11.3451 23.9513 11.3822 23.9195 11.421 23.856C11.4633 23.7925 11.4845 23.7413 11.4845 23.7024V23.676C11.4845 23.5913 11.4686 23.5489 11.4369 23.5489C11.4333 23.5524 11.3998 23.5754 11.3363 23.6177C11.2763 23.6566 11.2392 23.6901 11.2251 23.7183C11.2286 23.7183 11.2339 23.7236 11.241 23.7342C11.248 23.7448 11.2586 23.7501 11.2728 23.7501C11.2939 23.743 11.3239 23.7377 11.3628 23.7342C11.4016 23.7272 11.4298 23.7219 11.4475 23.7183C11.4298 23.7466 11.3963 23.7677 11.3469 23.7819C11.3116 23.796 11.2869 23.8101 11.2728 23.8242C11.2586 23.8348 11.2516 23.8525 11.2516 23.8772ZM9.49386 23.7501C9.5821 23.7501 9.65799 23.706 9.72152 23.6177H9.68446C9.63505 23.6177 9.57151 23.6619 9.49386 23.7501ZM9.42504 23.9778C9.4568 23.9601 9.49386 23.9336 9.53622 23.8983C9.5821 23.8595 9.6121 23.833 9.62622 23.8189L9.5574 23.8136C9.52563 23.8136 9.49386 23.8313 9.4621 23.8666C9.43386 23.9019 9.41974 23.9248 9.41974 23.9354L9.42504 23.9778ZM11.5375 23.8136C11.5234 23.8136 11.5022 23.8313 11.4739 23.8666C11.4457 23.9019 11.421 23.9372 11.3998 23.9725C11.3786 24.0042 11.3628 24.0289 11.3522 24.0466C11.3945 24.0466 11.4439 24.0378 11.5004 24.0201C11.5569 23.9989 11.5851 23.9707 11.5851 23.9354C11.5851 23.8542 11.5692 23.8136 11.5375 23.8136ZM11.4792 24.2372L11.6486 24.0836V24.0307C11.6063 24.0307 11.5516 24.0413 11.4845 24.0625C11.421 24.0836 11.3892 24.1101 11.3892 24.1419C11.3892 24.1595 11.3981 24.1807 11.4157 24.2054C11.4333 24.2301 11.451 24.2425 11.4686 24.2425L11.4792 24.2372ZM11.7122 24.4701C11.7616 24.4701 11.7863 24.4507 11.7863 24.4119C11.7863 24.3519 11.751 24.2619 11.6804 24.1419C11.6734 24.1489 11.6522 24.1631 11.6169 24.1842C11.5851 24.2019 11.5586 24.2231 11.5375 24.2478C11.5163 24.2689 11.5057 24.2901 11.5057 24.3113C11.5516 24.3113 11.5992 24.2989 11.6486 24.2742L11.5216 24.4066C11.5357 24.4489 11.5992 24.4701 11.7122 24.4701ZM9.29268 24.4066C9.29621 24.3995 9.32092 24.3713 9.3668 24.3219C9.41621 24.2689 9.44621 24.2213 9.4568 24.1789L9.40915 24.1736C9.35974 24.1736 9.31739 24.2019 9.28209 24.2584C9.2468 24.3148 9.22915 24.3695 9.22915 24.4225C9.22915 24.4472 9.23091 24.4666 9.23444 24.4807C9.2415 24.4948 9.25562 24.5019 9.2768 24.5019C9.29444 24.5019 9.30856 24.4895 9.31915 24.4648C9.32974 24.4366 9.33503 24.4172 9.33503 24.4066H9.29268ZM12.6147 24.6607C12.6077 24.6537 12.6006 24.6501 12.5936 24.6501C12.583 24.6501 12.5741 24.6519 12.5671 24.6554C12.56 24.659 12.553 24.6607 12.5459 24.6607C12.4541 24.6607 12.373 24.629 12.3024 24.5654C12.2353 24.4984 12.1859 24.4225 12.1541 24.3378C12.2071 24.3378 12.2441 24.3166 12.2653 24.2742C12.29 24.2283 12.313 24.1666 12.3341 24.0889C12.3483 24.0148 12.3641 23.9778 12.3818 23.9778L12.8371 24.2425C12.8442 24.2425 12.8547 24.2407 12.8689 24.2372C12.8865 24.2336 12.9077 24.2319 12.9324 24.2319C12.9748 24.2319 12.9977 24.2425 13.0012 24.2636L13.1283 24.2584C13.1918 24.2584 13.2377 24.2654 13.2659 24.2795C13.2942 24.2936 13.3154 24.3007 13.3295 24.3007C13.5412 24.3007 13.746 24.2636 13.9436 24.1895C14.1448 24.1119 14.2454 23.9813 14.2454 23.7977C14.2454 23.7201 14.2224 23.6336 14.1766 23.5383C14.1307 23.443 14.076 23.383 14.0124 23.3583L12.5777 22.7336C12.4436 22.6771 12.3447 22.5871 12.2812 22.4636C12.2177 22.3365 12.1859 22.1918 12.1859 22.0294C12.1859 21.9553 12.2 21.8865 12.2283 21.823C12.26 21.7559 12.2935 21.6959 12.3288 21.643C12.3677 21.5865 12.3941 21.5477 12.4083 21.5265C12.5177 21.3818 12.6712 21.2794 12.8689 21.2194C13.07 21.1594 13.2854 21.1294 13.5148 21.1294C13.543 21.1294 13.5854 21.1365 13.6418 21.1506C13.7018 21.1612 13.783 21.1665 13.8854 21.1665C13.9736 21.1806 14.076 21.2 14.1924 21.2247C14.3124 21.2459 14.3742 21.2582 14.3777 21.2618L14.473 21.3624V21.7541C14.473 21.7718 14.4572 21.8053 14.4254 21.8547C14.3936 21.9006 14.3707 21.9236 14.3566 21.9236C14.3177 21.9059 14.226 21.8618 14.0813 21.7912C13.9189 21.71 13.7865 21.65 13.6842 21.6112C13.5854 21.5688 13.483 21.5477 13.3771 21.5477C13.183 21.5477 13.0065 21.59 12.8477 21.6747C12.6924 21.7559 12.6147 21.8865 12.6147 22.0665C12.6147 22.1194 12.6412 22.1812 12.6942 22.2518C12.7506 22.3189 12.8159 22.3789 12.89 22.4318C12.9642 22.4812 13.0224 22.5059 13.0648 22.5059L13.1336 22.5006C13.2253 22.5289 13.3259 22.5801 13.4354 22.6542C13.5201 22.7142 13.5977 22.7583 13.6683 22.7865C13.7424 22.8148 13.836 22.8289 13.9489 22.8289C14.0689 22.8536 14.1889 22.9048 14.3089 22.9824C14.4325 23.0601 14.5348 23.1554 14.616 23.2683C14.6972 23.3777 14.7378 23.4924 14.7378 23.6124C14.7378 23.6654 14.7307 23.7166 14.7166 23.766C14.7025 23.8119 14.6936 23.8401 14.6901 23.8507C14.6689 23.8966 14.653 23.9495 14.6425 24.0095C14.5966 24.1789 14.5613 24.2919 14.5366 24.3484C14.5154 24.4013 14.4748 24.4454 14.4148 24.4807C14.3548 24.516 14.2542 24.5442 14.113 24.5654C14.1095 24.569 14.1042 24.5742 14.0971 24.5813C14.0901 24.5884 14.0848 24.5937 14.0813 24.5972C13.9613 24.6431 13.8501 24.6766 13.7477 24.6978C13.6454 24.7225 13.5395 24.7348 13.4301 24.7348C13.303 24.7348 13.1583 24.726 12.9959 24.7084C12.8336 24.6942 12.7065 24.6784 12.6147 24.6607ZM14.2083 21.59C14.2083 21.6183 14.2154 21.6394 14.2295 21.6535C14.2436 21.6677 14.2701 21.68 14.3089 21.6906L14.3777 21.4312C14.3777 21.403 14.256 21.3677 14.0124 21.3253C13.7724 21.2829 13.5995 21.2618 13.4936 21.2618C13.4865 21.2653 13.4777 21.2741 13.4671 21.2882C13.4601 21.2988 13.4565 21.3077 13.4565 21.3147C13.4565 21.35 13.483 21.3677 13.5359 21.3677H13.5624C13.6189 21.3677 13.6489 21.3535 13.6524 21.3253C13.6595 21.3571 13.6754 21.3835 13.7001 21.4047C13.7248 21.4259 13.7513 21.4365 13.7795 21.4365C13.8042 21.4365 13.8201 21.4347 13.8271 21.4312C13.8377 21.4241 13.8448 21.4118 13.8483 21.3941L13.9489 21.4894L14.0495 21.3941V21.5C14.0601 21.4965 14.0795 21.4894 14.1077 21.4788C14.1395 21.4647 14.173 21.4488 14.2083 21.4312L14.2454 21.4365C14.2454 21.4541 14.2383 21.4806 14.2242 21.5159C14.2136 21.5512 14.2083 21.5759 14.2083 21.59ZM13.2289 21.3253C13.2359 21.3324 13.2465 21.3394 13.2606 21.3465C13.2748 21.3535 13.2854 21.3588 13.2924 21.3624C13.3136 21.3624 13.3383 21.3571 13.3665 21.3465C13.3948 21.3324 13.4089 21.3165 13.4089 21.2988C13.3912 21.2988 13.3648 21.3024 13.3295 21.3094C13.2942 21.3129 13.2606 21.3182 13.2289 21.3253ZM12.98 21.3571C12.9342 21.3571 12.8777 21.3712 12.8106 21.3994C12.7436 21.4241 12.71 21.4524 12.71 21.4841C12.71 21.4912 12.7242 21.4947 12.7524 21.4947C12.7877 21.4947 12.8336 21.4806 12.89 21.4524C12.95 21.4206 12.98 21.3888 12.98 21.3571ZM14.1607 21.4894C14.1501 21.493 14.1377 21.5018 14.1236 21.5159C14.113 21.5265 14.1077 21.5371 14.1077 21.5477L14.113 21.5583L14.1766 21.4894H14.1607ZM12.6412 21.5583C12.5989 21.5724 12.56 21.6006 12.5247 21.643C12.493 21.6818 12.4771 21.7224 12.4771 21.7647C12.5265 21.7647 12.5653 21.7453 12.5936 21.7065C12.6253 21.6677 12.6412 21.6183 12.6412 21.5583ZM12.5089 21.8071C12.4312 21.8071 12.3888 21.823 12.3818 21.8547H12.5089V21.8071ZM12.3447 21.9183C12.3447 21.943 12.35 21.9677 12.3606 21.9924C12.3747 22.0136 12.3906 22.0242 12.4083 22.0242C12.433 22.0242 12.4524 22.0136 12.4665 21.9924C12.4806 21.9677 12.4877 21.943 12.4877 21.9183H12.3447ZM12.3394 22.1089C12.3394 22.1795 12.3588 22.2147 12.3977 22.2147C12.4365 22.2147 12.4559 22.1795 12.4559 22.1089H12.3394ZM12.4083 22.2783C12.4294 22.2783 12.4471 22.2747 12.4612 22.2677C12.4788 22.2571 12.4877 22.243 12.4877 22.2253L12.4824 22.2147L12.3818 22.273L12.4083 22.2783ZM12.4083 22.3736H12.4824V22.3418H12.4083V22.3736ZM12.5618 22.3683C12.5547 22.3683 12.5441 22.3771 12.53 22.3948C12.5194 22.4089 12.5124 22.4248 12.5089 22.4424L12.5459 22.4477C12.5812 22.4477 12.6041 22.4353 12.6147 22.4106C12.6077 22.3965 12.5989 22.3859 12.5883 22.3789C12.5777 22.3718 12.5689 22.3683 12.5618 22.3683ZM12.5671 22.5271C12.5671 22.5342 12.5777 22.543 12.5989 22.5536C12.62 22.5606 12.6341 22.5677 12.6412 22.5748C12.6942 22.5748 12.7206 22.5395 12.7206 22.4689C12.6889 22.4689 12.6553 22.4742 12.62 22.4848C12.5883 22.4953 12.5724 22.5077 12.5724 22.5218L12.5671 22.5271ZM12.7894 22.5324C12.7718 22.5324 12.7594 22.5412 12.7524 22.5589C12.7489 22.5765 12.7453 22.5889 12.7418 22.5959H12.8847C12.8847 22.5783 12.8742 22.5642 12.853 22.5536C12.8318 22.5395 12.8106 22.5324 12.7894 22.5324ZM12.9006 22.6701C12.9112 22.6806 12.9324 22.6948 12.9642 22.7124C12.9995 22.7265 13.0242 22.7336 13.0383 22.7336C13.0453 22.7336 13.0577 22.7265 13.0753 22.7124C13.093 22.6948 13.1018 22.6806 13.1018 22.6701L13.0648 22.6383L12.9006 22.6701ZM13.1283 22.6965C13.1283 22.7389 13.1424 22.7636 13.1706 22.7706C13.2024 22.7777 13.2483 22.7812 13.3083 22.7812C13.3083 22.7248 13.2483 22.6965 13.1283 22.6965ZM13.4565 22.8659C13.5024 22.9118 13.5483 22.9348 13.5942 22.9348L13.626 22.9295C13.5342 22.8871 13.4777 22.8659 13.4565 22.8659ZM13.8218 23.0301L13.8483 22.993H13.7795L13.8218 23.0301ZM13.8854 23.0618C13.9136 23.0971 13.9489 23.1307 13.9913 23.1624C14.0336 23.1907 14.0742 23.2048 14.113 23.2048V23.1571H14.0813C14.0883 23.1501 14.0954 23.1413 14.1024 23.1307C14.1095 23.1201 14.113 23.1112 14.113 23.1042C14.113 23.0512 14.0742 23.0248 13.9966 23.0248H13.9701C13.9171 23.0248 13.8889 23.0371 13.8854 23.0618ZM14.2613 23.1889C14.1977 23.1889 14.166 23.2101 14.166 23.2524H14.3936C14.3936 23.2101 14.3495 23.1889 14.2613 23.1889ZM14.436 23.4854C14.3866 23.4924 14.3619 23.5207 14.3619 23.5701C14.3936 23.5701 14.4254 23.5613 14.4572 23.5436C14.4889 23.5224 14.5154 23.4995 14.5366 23.4748C14.5578 23.4501 14.5683 23.4342 14.5683 23.4271C14.5683 23.3918 14.5542 23.3654 14.526 23.3477C14.4977 23.3301 14.4677 23.3213 14.436 23.3213C14.4148 23.3248 14.383 23.3336 14.3407 23.3477C14.2983 23.3618 14.2772 23.3742 14.2772 23.3848V23.4218L14.436 23.4854ZM14.4042 23.6654C14.4042 23.7007 14.4289 23.7183 14.4783 23.7183C14.5454 23.7183 14.5842 23.7042 14.5948 23.676C14.6089 23.6442 14.616 23.5877 14.616 23.5066C14.5807 23.5066 14.5366 23.526 14.4836 23.5648C14.4307 23.6001 14.4042 23.6336 14.4042 23.6654ZM14.436 23.9778C14.3866 23.9848 14.3619 24.0113 14.3619 24.0572C14.4254 24.0572 14.4713 24.0325 14.4995 23.983C14.5313 23.9336 14.5472 23.8736 14.5472 23.803C14.5225 23.803 14.4925 23.8136 14.4572 23.8348C14.4219 23.8525 14.4042 23.8719 14.4042 23.893C14.4042 23.9142 14.4148 23.9425 14.436 23.9778ZM13.4565 24.4331C13.4565 24.4719 13.4742 24.5054 13.5095 24.5337C13.5448 24.5584 13.5818 24.5707 13.6207 24.5707H13.6365C13.686 24.5707 13.7142 24.5566 13.7212 24.5284C13.9189 24.5001 14.083 24.4613 14.2136 24.4119C14.3477 24.3625 14.4219 24.2707 14.436 24.1366C14.4113 24.1154 14.3777 24.1048 14.3354 24.1048C14.3213 24.1048 14.3001 24.1348 14.2719 24.1948C14.2472 24.2513 14.2207 24.2954 14.1924 24.3272C14.1677 24.3589 14.136 24.3748 14.0971 24.3748C14.0901 24.3748 14.0777 24.3695 14.0601 24.3589C14.0424 24.3448 14.0266 24.3378 14.0124 24.3378C13.963 24.3378 13.8924 24.3448 13.8007 24.3589C13.776 24.3625 13.7495 24.366 13.7212 24.3695C13.693 24.3731 13.6648 24.3748 13.6365 24.3748C13.573 24.3748 13.5359 24.3731 13.5254 24.3695C13.5148 24.3766 13.5007 24.3872 13.483 24.4013C13.4689 24.4119 13.4601 24.4225 13.4565 24.4331ZM12.44 24.4119C12.44 24.4472 12.4488 24.4719 12.4665 24.486C12.4841 24.4966 12.5106 24.5019 12.5459 24.5019C12.5706 24.5019 12.5936 24.4931 12.6147 24.4754C12.6359 24.4542 12.6465 24.4225 12.6465 24.3801L12.6412 24.3695L12.5089 24.4331L12.4824 24.4225V24.4013C12.4894 24.3978 12.5141 24.3872 12.5565 24.3695C12.6024 24.3484 12.6306 24.3254 12.6412 24.3007C12.6377 24.2936 12.6253 24.2866 12.6041 24.2795C12.5865 24.2689 12.5689 24.2636 12.5512 24.2636C12.5159 24.2636 12.4877 24.2813 12.4665 24.3166C12.4488 24.3519 12.44 24.3836 12.44 24.4119ZM12.8106 24.3378C12.7612 24.3378 12.7242 24.3536 12.6994 24.3854C12.6783 24.4137 12.6677 24.4507 12.6677 24.4966H12.7418L12.71 24.4701C12.7347 24.4525 12.7577 24.4295 12.7789 24.4013C12.8 24.3731 12.8106 24.3519 12.8106 24.3378ZM12.8106 24.4966C12.8212 24.5001 12.8371 24.5072 12.8583 24.5178C12.883 24.5284 12.9112 24.5337 12.943 24.5337C12.9818 24.5337 13.0136 24.516 13.0383 24.4807C13.063 24.4454 13.0753 24.4066 13.0753 24.3642C12.8989 24.3642 12.8106 24.4084 12.8106 24.4966ZM13.2924 24.4013C13.2183 24.4013 13.1706 24.4137 13.1495 24.4384C13.1283 24.4595 13.1177 24.5019 13.1177 24.5654H13.393C13.3965 24.5619 13.4018 24.5566 13.4089 24.5495C13.4159 24.5425 13.4212 24.5354 13.4248 24.5284C13.4248 24.4789 13.4142 24.4454 13.393 24.4278C13.3718 24.4101 13.3383 24.4013 13.2924 24.4013ZM13.6418 24.4648C13.6489 24.4648 13.663 24.4754 13.6842 24.4966H13.626V24.4701L13.6418 24.4648ZM16.0173 21.6694C16.0173 21.6377 15.9661 21.6165 15.8638 21.6059C15.7614 21.5953 15.6573 21.59 15.5514 21.59L15.292 21.5953C15.0873 21.5953 14.9849 21.5759 14.9849 21.5371C14.9849 21.4912 15.0008 21.4435 15.0326 21.3941C15.0467 21.3694 15.0591 21.3429 15.0696 21.3147C15.0838 21.2829 15.0908 21.2494 15.0908 21.2141C15.0944 21.2106 15.1049 21.1965 15.1226 21.1718C15.1402 21.1471 15.2144 21.1347 15.3449 21.1347V21.1824C15.5532 21.1824 15.735 21.1841 15.8903 21.1876C16.0456 21.1912 16.1762 21.1947 16.282 21.1982C16.7056 21.2124 17.0215 21.2194 17.2297 21.2194C17.3674 21.2194 17.4715 21.2176 17.5421 21.2141C17.5844 21.2282 17.6056 21.2777 17.6056 21.3624V21.4153C17.6056 21.4824 17.595 21.5335 17.5739 21.5688L17.145 21.6059C17.078 21.6094 16.9809 21.6253 16.8538 21.6535C16.7338 21.6818 16.635 21.6977 16.5573 21.7012C16.5326 21.793 16.5203 21.9306 16.5203 22.1142C16.5203 22.273 16.5273 22.5112 16.5415 22.8289C16.5556 23.1395 16.5626 23.3777 16.5626 23.5436C16.5626 23.6283 16.5573 23.8136 16.5468 24.0995C16.5362 24.216 16.5309 24.3431 16.5309 24.4807C16.5309 24.4913 16.5291 24.5178 16.5256 24.5601C16.5221 24.599 16.5097 24.6272 16.4885 24.6448C16.4673 24.666 16.4356 24.6766 16.3932 24.6766C16.3791 24.6766 16.3597 24.6695 16.335 24.6554C16.3103 24.6448 16.2909 24.6395 16.2767 24.6395C16.2662 24.6466 16.245 24.6537 16.2132 24.6607C16.185 24.6678 16.1585 24.6713 16.1338 24.6713C16.1197 24.6713 16.0932 24.6572 16.0544 24.629C16.0191 24.6007 16.0014 24.5831 16.0014 24.576L16.0173 21.8653V21.6694ZM15.2497 21.4259C15.3308 21.4259 15.3979 21.4224 15.4508 21.4153C15.5073 21.4082 15.5497 21.3835 15.5779 21.3412C15.5638 21.3412 15.5108 21.3306 15.4191 21.3094C15.3308 21.2847 15.2744 21.2724 15.2497 21.2724V21.4259ZM15.8373 21.3094C15.802 21.3094 15.7561 21.32 15.6997 21.3412C15.6467 21.3588 15.6061 21.3782 15.5779 21.3994L15.7738 21.4047C15.8867 21.4047 15.9432 21.3888 15.9432 21.3571C15.9432 21.3253 15.9079 21.3094 15.8373 21.3094ZM16.2291 21.733C16.2291 21.7436 16.2203 21.7665 16.2026 21.8018C16.1885 21.8336 16.1762 21.8653 16.1656 21.8971C16.1938 21.8971 16.2273 21.8724 16.2662 21.823C16.3085 21.7736 16.3297 21.7259 16.3297 21.68C16.3297 21.673 16.3209 21.6641 16.3032 21.6535C16.2891 21.643 16.275 21.6377 16.2609 21.6377C16.2609 21.5459 16.2715 21.4841 16.2926 21.4524C16.3138 21.4206 16.3244 21.403 16.3244 21.3994V21.5159C16.3632 21.5159 16.4073 21.4947 16.4568 21.4524C16.5062 21.41 16.5309 21.3677 16.5309 21.3253C16.432 21.3253 16.3509 21.3394 16.2873 21.3677C16.2273 21.3924 16.1973 21.4453 16.1973 21.5265C16.1973 21.5794 16.2026 21.6235 16.2132 21.6588C16.2238 21.6906 16.2291 21.7153 16.2291 21.733ZM16.0014 21.3994C16.0085 21.4277 16.0314 21.4418 16.0703 21.4418C16.1162 21.4418 16.1479 21.4365 16.1656 21.4259C16.1867 21.4118 16.2079 21.3835 16.2291 21.3412L16.1444 21.3306C16.1091 21.3306 16.0791 21.3341 16.0544 21.3412C16.0297 21.3482 16.012 21.3677 16.0014 21.3994ZM16.9174 21.4418C16.9209 21.4418 16.9262 21.4365 16.9332 21.4259C16.9438 21.4118 16.9509 21.3994 16.9544 21.3888C16.9544 21.3535 16.9103 21.3359 16.8221 21.3359L16.6897 21.3412V21.4418H16.9174ZM17.4256 21.3994C17.4256 21.3747 17.4133 21.3588 17.3886 21.3518C17.3674 21.3447 17.3286 21.3412 17.2721 21.3412C17.258 21.3412 17.2156 21.3465 17.145 21.3571C17.078 21.3641 17.0356 21.3712 17.018 21.3782L17.0444 21.3994H17.4256ZM16.5891 21.4418H16.6209V21.3782H16.5891V21.4418ZM16.3244 21.8283C16.3209 21.8459 16.3085 21.8706 16.2873 21.9024C16.2697 21.9306 16.2609 21.95 16.2609 21.9606C16.3209 21.9394 16.3579 21.9041 16.372 21.8547C16.3862 21.8018 16.3932 21.7506 16.3932 21.7012C16.3932 21.6518 16.3932 21.62 16.3932 21.6059L16.3244 21.8283ZM16.3244 22.0559C16.3138 22.0771 16.2979 22.1124 16.2767 22.1618C16.2556 22.2077 16.2397 22.2483 16.2291 22.2836L16.2609 22.2942C16.3067 22.2942 16.3297 22.2518 16.3297 22.1671L16.3244 22.0559ZM16.2609 22.3577C16.2185 22.3612 16.192 22.3789 16.1815 22.4106C16.1709 22.4424 16.1656 22.4883 16.1656 22.5483C16.2326 22.4918 16.2662 22.4389 16.2662 22.3895L16.2609 22.3577ZM16.2291 22.5853H16.3032V22.453L16.2291 22.5853ZM16.1285 22.8289C16.1285 22.8783 16.1409 22.9048 16.1656 22.9083C16.2291 22.8518 16.282 22.7865 16.3244 22.7124C16.3244 22.7054 16.3209 22.7001 16.3138 22.6965C16.3103 22.6895 16.3067 22.6842 16.3032 22.6806C16.2432 22.6806 16.1991 22.6912 16.1709 22.7124C16.1426 22.7301 16.1285 22.7636 16.1285 22.813V22.8289ZM16.3244 22.813C16.2926 22.8342 16.2626 22.8677 16.2344 22.9136C16.2097 22.9595 16.1973 23.0036 16.1973 23.046C16.2397 23.046 16.2785 23.0389 16.3138 23.0248C16.3491 23.0071 16.3668 22.9807 16.3668 22.9454C16.3668 22.8995 16.3526 22.8554 16.3244 22.813ZM16.1285 23.2365C16.1285 23.2542 16.1303 23.2683 16.1338 23.2789C16.1373 23.2895 16.1479 23.2966 16.1656 23.3001C16.2009 23.2683 16.2379 23.233 16.2767 23.1942C16.3156 23.1518 16.3438 23.1112 16.3615 23.0724C16.305 23.0724 16.252 23.0883 16.2026 23.1201C16.1532 23.1483 16.1285 23.1871 16.1285 23.2365ZM16.1656 23.496C16.2397 23.4713 16.2926 23.443 16.3244 23.4113C16.3562 23.3795 16.372 23.3318 16.372 23.2683C16.372 23.2542 16.3703 23.2365 16.3668 23.2154C16.3668 23.1942 16.365 23.1783 16.3615 23.1677L16.1656 23.4271V23.496ZM16.3932 23.6283L16.3985 23.586V23.5701C16.3985 23.5277 16.3862 23.503 16.3615 23.496L16.1973 23.7236L16.3932 23.6283ZM16.1973 23.5595C16.1762 23.5701 16.1656 23.593 16.1656 23.6283C16.1762 23.6283 16.185 23.6213 16.192 23.6071C16.1991 23.593 16.2026 23.5842 16.2026 23.5807L16.1973 23.5595ZM16.102 23.9089C16.102 23.923 16.1126 23.9425 16.1338 23.9672C16.1585 23.9883 16.1744 23.9989 16.1815 23.9989C16.1815 23.946 16.2115 23.8966 16.2715 23.8507C16.2785 23.8436 16.2926 23.8295 16.3138 23.8083C16.3385 23.7836 16.3544 23.7554 16.3615 23.7236H16.3456C16.3103 23.7236 16.2609 23.743 16.1973 23.7819C16.1338 23.8172 16.102 23.8595 16.102 23.9089ZM16.3773 23.8189C16.3526 23.8295 16.3262 23.8489 16.2979 23.8772C16.2697 23.9054 16.2556 23.9336 16.2556 23.9619C16.3015 23.9619 16.3332 23.953 16.3509 23.9354C16.372 23.9142 16.3862 23.8772 16.3932 23.8242L16.3773 23.8189ZM16.1338 24.4172C16.1514 24.4348 16.1691 24.4437 16.1867 24.4437C16.2079 24.4437 16.245 24.3978 16.2979 24.306C16.3509 24.2107 16.3773 24.1472 16.3773 24.1154H16.3244V24.0254L16.1656 24.0836L16.1338 24.4172ZM16.3032 24.2107H16.2609L16.3032 24.1842V24.2107ZM16.3244 24.3801C16.2715 24.4331 16.2397 24.4754 16.2291 24.5072C16.2573 24.5001 16.2803 24.4895 16.2979 24.4754C16.3191 24.4578 16.3297 24.4384 16.3297 24.4172L16.3244 24.3801ZM18.4106 24.6819C18.3611 24.6819 18.3082 24.6731 18.2517 24.6554C18.1953 24.6378 18.16 24.6095 18.1458 24.5707C18.1458 24.4648 18.1476 24.3713 18.1511 24.2901C18.1547 24.2089 18.1582 24.1419 18.1617 24.0889C18.1723 23.923 18.1776 23.7624 18.1776 23.6071V23.3901C18.1776 23.2207 18.1723 23.0724 18.1617 22.9454C18.1547 22.8183 18.137 22.6948 18.1088 22.5748V21.1718H18.7653C18.8112 21.1894 18.8535 21.2 18.8923 21.2035C18.9312 21.2071 18.9876 21.2088 19.0618 21.2088C19.1041 21.2088 19.1359 21.1965 19.1571 21.1718C19.3088 21.1718 19.48 21.1647 19.6706 21.1506L19.8453 21.14C19.8912 21.14 20.0306 21.1506 20.2636 21.1718C20.2706 21.1788 20.2777 21.1894 20.2848 21.2035C20.2953 21.2176 20.3024 21.23 20.3059 21.2406C20.3059 21.3006 20.2971 21.3535 20.2795 21.3994C20.2653 21.4488 20.2583 21.4947 20.2583 21.5371L20.2636 21.5953L20.1365 21.6271C19.9883 21.6165 19.8383 21.6112 19.6865 21.6112C19.2947 21.6112 18.9453 21.65 18.6382 21.7277C18.6206 21.7665 18.6082 21.8 18.6012 21.8283C18.5976 21.8565 18.5959 21.8918 18.5959 21.9341C18.5959 21.973 18.6029 22.0277 18.617 22.0983C18.6312 22.1759 18.6382 22.2324 18.6382 22.2677L18.6012 22.5748L18.6647 22.6383L18.8341 22.6489C18.9153 22.6489 19.0088 22.6401 19.1147 22.6224C19.1535 22.6118 19.1888 22.6065 19.2206 22.6065C19.2453 22.6312 19.2612 22.6436 19.2682 22.6436H19.2629L19.2735 22.6489C19.3018 22.6489 19.3159 22.6312 19.3159 22.5959H19.9089C19.9371 22.6348 19.9583 22.6718 19.9724 22.7071L20.0359 22.6754C20.0218 22.6895 20.013 22.7089 20.0094 22.7336C20.0059 22.7548 20.0042 22.7812 20.0042 22.813C20.0042 22.9436 20.0059 23.0177 20.0094 23.0354L19.9406 23.0936C19.6547 23.0936 19.2894 23.106 18.8447 23.1307L18.6965 23.136L18.6435 23.1307C18.6153 23.1307 18.6012 23.1413 18.6012 23.1624V24.1472L18.6382 24.2054C18.6417 24.2125 18.707 24.2213 18.8341 24.2319C18.9647 24.2389 19.0776 24.2425 19.1729 24.2425C19.2153 24.2425 19.2965 24.2283 19.4165 24.2001C19.5506 24.1648 19.6477 24.1472 19.7077 24.1472C19.7536 24.1472 19.8083 24.1525 19.8718 24.1631C19.9353 24.1701 19.9689 24.1754 19.9724 24.1789L20.0094 24.2054C20.013 24.1842 20.0324 24.1736 20.0677 24.1736L20.1365 24.1789L20.0783 24.2054L20.1524 24.2001H20.1842C20.2053 24.2001 20.2212 24.2036 20.2318 24.2107C20.2459 24.2142 20.2565 24.2248 20.2636 24.2425C20.2742 24.2389 20.2848 24.2336 20.2953 24.2266C20.3095 24.216 20.3218 24.2089 20.3324 24.2054C20.3642 24.2266 20.3836 24.2548 20.3906 24.2901C20.4012 24.3219 20.4065 24.366 20.4065 24.4225C20.4065 24.5954 20.3818 24.7084 20.3324 24.7613L20.1895 24.7666C20.0977 24.7666 20.0253 24.7613 19.9724 24.7507C19.9194 24.7401 19.8541 24.7172 19.7765 24.6819H18.4106ZM19.7077 21.2988C19.7041 21.3094 19.7024 21.3218 19.7024 21.3359C19.7024 21.3641 19.7094 21.3835 19.7236 21.3941C19.7377 21.4012 19.7588 21.4047 19.7871 21.4047C19.8259 21.4047 19.8612 21.3959 19.893 21.3782C19.9283 21.3606 19.9459 21.3341 19.9459 21.2988H19.7077ZM18.3735 21.5635C18.4017 21.5635 18.4776 21.5353 18.6012 21.4788C18.7282 21.4224 18.7935 21.3853 18.797 21.3677C18.7406 21.3429 18.6523 21.3306 18.5323 21.3306C18.3629 21.3306 18.2782 21.3324 18.2782 21.3359L18.2411 21.4947C18.2764 21.4947 18.3329 21.4735 18.4106 21.4312L18.3364 21.5635H18.3735ZM19.0882 21.3677H19.1253V21.3359L19.0882 21.3677ZM18.9294 21.4312C18.9082 21.4382 18.8923 21.4524 18.8818 21.4735C18.8712 21.4947 18.8641 21.5088 18.8606 21.5159C18.8606 21.523 18.8659 21.5265 18.8765 21.5265C18.9153 21.5265 18.9347 21.5071 18.9347 21.4682L18.9294 21.4312ZM18.4106 21.6271C18.3717 21.6271 18.3382 21.6359 18.31 21.6535C18.2817 21.6712 18.2676 21.6977 18.2676 21.733C18.2994 21.733 18.3294 21.7224 18.3576 21.7012C18.3894 21.68 18.4141 21.6553 18.4317 21.6271H18.4106ZM18.4106 21.8918C18.3964 21.913 18.377 21.9289 18.3523 21.9394C18.3276 21.95 18.3082 21.9624 18.2941 21.9765C18.28 21.9871 18.2729 22.0065 18.2729 22.0347L18.2782 22.0824C18.3382 22.033 18.3788 21.9906 18.4 21.9553C18.4247 21.92 18.437 21.8706 18.437 21.8071L18.4317 21.7277C18.4106 21.7488 18.3788 21.7736 18.3364 21.8018C18.2976 21.83 18.2782 21.8477 18.2782 21.8547C18.2782 21.883 18.3064 21.8971 18.3629 21.8971L18.4106 21.8918ZM18.4847 22.0453C18.4247 22.0453 18.3647 22.1018 18.3047 22.2147C18.3682 22.2147 18.4106 22.2112 18.4317 22.2042C18.4564 22.1971 18.4706 22.1847 18.4741 22.1671C18.4812 22.1459 18.4847 22.1053 18.4847 22.0453ZM18.3735 22.2836C18.3559 22.2836 18.3347 22.2871 18.31 22.2942C18.2888 22.3012 18.2782 22.3065 18.2782 22.31V22.5218C18.3135 22.5218 18.3559 22.4989 18.4053 22.453C18.4547 22.4071 18.4794 22.363 18.4794 22.3206C18.4794 22.3136 18.467 22.3065 18.4423 22.2995C18.4176 22.2889 18.3947 22.2836 18.3735 22.2836ZM18.5059 22.5059C18.4635 22.5059 18.4229 22.5201 18.3841 22.5483C18.3488 22.573 18.3311 22.6048 18.3311 22.6436C18.4476 22.6436 18.5059 22.5977 18.5059 22.5059ZM18.2994 22.7654C18.2994 22.7936 18.3047 22.8218 18.3153 22.8501C18.3259 22.8783 18.3329 22.8977 18.3364 22.9083L18.5059 22.7389V22.6965C18.4494 22.6965 18.4 22.7001 18.3576 22.7071C18.3188 22.7142 18.2994 22.7336 18.2994 22.7654ZM19.7447 22.7706C19.7094 22.7812 19.6759 22.8024 19.6441 22.8342C19.6159 22.8624 19.5947 22.8942 19.5806 22.9295H19.8453C19.8065 22.8836 19.773 22.8307 19.7447 22.7706ZM19.1782 22.7971C19.1147 22.7936 19.0547 22.813 18.9982 22.8554C18.9453 22.8942 18.9188 22.9418 18.9188 22.9983C18.9753 22.9983 19.0371 22.9789 19.1041 22.9401C19.1747 22.8977 19.2241 22.8518 19.2524 22.8024L19.1782 22.7971ZM19.353 22.9665C19.3635 22.9665 19.3724 22.9454 19.3794 22.903C19.3865 22.8607 19.39 22.8271 19.39 22.8024H19.353L19.1888 22.9665H19.353ZM18.6965 22.9665C18.7388 22.9665 18.7847 22.9559 18.8341 22.9348C18.8835 22.9101 18.9082 22.8783 18.9082 22.8395H18.5376C18.5129 22.8395 18.5006 22.8624 18.5006 22.9083H18.6965V22.9665ZM18.4476 22.993C18.3735 22.993 18.3364 23.0195 18.3364 23.0724C18.3647 23.0724 18.3894 23.0671 18.4106 23.0565C18.4353 23.0424 18.4476 23.0212 18.4476 22.993ZM18.4317 23.136C18.4282 23.1395 18.4106 23.1536 18.3788 23.1783C18.347 23.203 18.3311 23.233 18.3311 23.2683C18.3735 23.2683 18.4017 23.263 18.4159 23.2524C18.43 23.2383 18.437 23.2118 18.437 23.173L18.4317 23.136ZM18.3364 23.3954C18.34 23.4024 18.3453 23.413 18.3523 23.4271C18.3594 23.4413 18.3664 23.4519 18.3735 23.4589C18.4017 23.4483 18.4159 23.413 18.4159 23.353C18.4017 23.353 18.3841 23.3566 18.3629 23.3636C18.3453 23.3671 18.3364 23.3777 18.3364 23.3954ZM18.437 23.5171C18.4017 23.5171 18.3788 23.5313 18.3682 23.5595C18.3611 23.5842 18.3576 23.6213 18.3576 23.6707C18.4106 23.6707 18.437 23.6195 18.437 23.5171ZM18.3947 23.7183C18.3453 23.7183 18.3206 23.773 18.3206 23.8825C18.3206 23.9001 18.3206 23.9142 18.3206 23.9248C18.3241 23.9354 18.3259 23.9425 18.3259 23.946H18.3735C18.3806 23.946 18.3912 23.9283 18.4053 23.893C18.4229 23.8542 18.4317 23.826 18.4317 23.8083C18.4317 23.7907 18.4282 23.7713 18.4212 23.7501C18.4141 23.7254 18.407 23.713 18.4 23.713L18.3947 23.7183ZM18.3364 24.2478C18.3647 24.2478 18.3841 24.2372 18.3947 24.216C18.4088 24.1948 18.4159 24.1719 18.4159 24.1472H18.3364V24.2478ZM18.3364 24.4489C18.3364 24.4631 18.3417 24.4754 18.3523 24.486C18.3629 24.4966 18.37 24.5037 18.3735 24.5072C18.3806 24.5001 18.4053 24.4754 18.4476 24.4331C18.4935 24.3872 18.5164 24.3554 18.5164 24.3378H18.4317V24.2795C18.4106 24.2901 18.3894 24.3184 18.3682 24.3642C18.3506 24.4101 18.34 24.4348 18.3364 24.4384V24.4489ZM19.6494 24.3378C19.6353 24.3378 19.6212 24.3395 19.6071 24.3431C19.5965 24.3466 19.5877 24.3554 19.5806 24.3695H19.5912C19.6441 24.3695 19.6741 24.3589 19.6812 24.3378H19.6494ZM19.5806 24.4701C19.6371 24.4701 19.6759 24.4684 19.6971 24.4648C19.7218 24.4578 19.7483 24.4384 19.7765 24.4066V24.4701L20.0359 24.3695H19.7077L19.5806 24.4701ZM20.0994 24.6025C20.1595 24.6025 20.1983 24.5813 20.2159 24.5389C20.2336 24.4966 20.2424 24.4401 20.2424 24.3695H20.0994V24.6025ZM19.1571 24.4013C19.1112 24.4013 19.0671 24.4101 19.0247 24.4278C18.9823 24.4454 18.9506 24.4719 18.9294 24.5072L19.0247 24.5125C19.0812 24.5125 19.1235 24.5072 19.1518 24.4966C19.1835 24.4825 19.2065 24.4525 19.2206 24.4066L19.1571 24.4013ZM19.4641 24.4013C19.4571 24.4013 19.4412 24.4137 19.4165 24.4384C19.3918 24.4595 19.3706 24.4825 19.353 24.5072C19.3671 24.5072 19.3882 24.4966 19.4165 24.4754C19.4447 24.4542 19.4659 24.4313 19.48 24.4066L19.4641 24.4013ZM18.6382 24.4066C18.5782 24.4313 18.5217 24.4648 18.4688 24.5072C18.5112 24.5072 18.5412 24.5019 18.5588 24.4913C18.58 24.4772 18.6065 24.4489 18.6382 24.4066ZM20.0359 24.4384C20.0183 24.4384 19.9865 24.4472 19.9406 24.4648C19.8983 24.4825 19.8771 24.4966 19.8771 24.5072V24.5601C19.9159 24.5601 19.953 24.5495 19.9883 24.5284C20.0271 24.5037 20.0571 24.4737 20.0783 24.4384H20.0359ZM18.7812 24.4701C18.7706 24.4701 18.7565 24.4737 18.7388 24.4807C18.7212 24.4878 18.707 24.4966 18.6965 24.5072L18.7335 24.5125C18.7653 24.5125 18.7865 24.4984 18.797 24.4701H18.7812ZM20.8331 23.8825C20.8402 23.8154 20.8543 23.6848 20.8755 23.4907C20.8967 23.293 20.9196 23.1307 20.9443 23.0036C20.8984 22.8659 20.8755 22.5924 20.8755 22.183L20.8808 21.6006C20.8561 21.583 20.8419 21.5512 20.8384 21.5053C20.8349 21.4559 20.8331 21.3818 20.8331 21.2829C20.8331 21.2371 20.8367 21.2106 20.8437 21.2035L20.9125 21.14H21.3361L21.3731 21.1718C21.3767 21.1753 21.389 21.2477 21.4102 21.3888L21.4314 21.5C21.4561 21.6588 21.4684 21.8706 21.4684 22.1353C21.4684 22.3153 21.4508 22.5818 21.4155 22.9348C21.3802 23.2877 21.3626 23.5542 21.3626 23.7342C21.3626 23.8013 21.3643 23.8577 21.3679 23.9036C21.3714 23.9495 21.3731 23.976 21.3731 23.983L21.4314 24.0519C21.4102 24.0554 21.3996 24.0713 21.3996 24.0995C21.3996 24.1172 21.4014 24.1331 21.4049 24.1472C21.412 24.1613 21.4155 24.1736 21.4155 24.1842C21.4614 24.1878 21.5214 24.1895 21.5955 24.1895C21.6696 24.1895 21.7437 24.1913 21.8179 24.1948L22.1567 24.2054C22.192 24.2336 22.2555 24.2478 22.3473 24.2478C22.4426 24.2478 22.5573 24.2336 22.6914 24.2054C22.8044 24.1842 22.8944 24.1736 22.9614 24.1736C22.9614 24.2089 22.9685 24.2584 22.9826 24.3219C22.9861 24.336 22.9897 24.3572 22.9932 24.3854C22.9967 24.4101 22.9985 24.4331 22.9985 24.4542C22.9985 24.486 22.9809 24.5195 22.9456 24.5548C22.9103 24.5866 22.8856 24.6025 22.8714 24.6025L22.6755 24.5707C22.5591 24.6519 22.4038 24.6925 22.2096 24.6925C22.1567 24.6925 22.0843 24.689 21.9926 24.6819L21.8179 24.6766L21.5108 24.6819C21.3237 24.6819 21.1684 24.6642 21.0449 24.629C20.9214 24.5901 20.8596 24.5178 20.8596 24.4119V23.8825H20.8331ZM21.1667 21.5265C21.1596 21.5477 21.1384 21.5935 21.1031 21.6641C21.0573 21.7347 21.0343 21.7965 21.0343 21.8494C21.1296 21.8494 21.1984 21.8424 21.2408 21.8283C21.2867 21.8106 21.3096 21.7647 21.3096 21.6906C21.3096 21.4082 21.2761 21.2671 21.209 21.2671C21.1949 21.2671 21.1296 21.2794 21.0131 21.3041C21.0202 21.4347 21.0431 21.5 21.082 21.5C21.0925 21.5 21.1014 21.4982 21.1084 21.4947C21.1155 21.4912 21.1225 21.4894 21.1296 21.4894C21.1437 21.4894 21.1561 21.5018 21.1667 21.5265ZM21.1296 21.8918C21.0908 21.8918 21.0608 21.9024 21.0396 21.9236L21.0714 21.9289C21.0925 21.9289 21.1084 21.9271 21.119 21.9236C21.1296 21.92 21.1384 21.9094 21.1455 21.8918H21.1296ZM21.1667 22.183C21.1137 22.183 21.0784 22.19 21.0608 22.2042C21.0431 22.2183 21.0343 22.2483 21.0343 22.2942C21.0343 22.3436 21.0361 22.3736 21.0396 22.3842C21.1278 22.3559 21.1949 22.2942 21.2408 22.1989C21.2867 22.1036 21.3096 22.0065 21.3096 21.9077C21.2602 21.9077 21.2108 21.9306 21.1614 21.9765C21.112 22.0189 21.082 22.0436 21.0714 22.0506C21.0714 22.0789 21.0873 22.1 21.119 22.1142C21.1543 22.1283 21.172 22.1459 21.172 22.1671L21.1667 22.183ZM21.0396 22.5377C21.0608 22.5448 21.0961 22.5483 21.1455 22.5483C21.2231 22.5483 21.2726 22.5289 21.2937 22.49C21.3149 22.4477 21.3255 22.3789 21.3255 22.2836H21.2726L21.0396 22.5377ZM21.0396 22.6806C21.0678 22.6806 21.0961 22.6771 21.1243 22.6701C21.1561 22.663 21.172 22.6489 21.172 22.6277L21.1667 22.6118L21.0396 22.6436V22.6806ZM21.2726 22.6648C21.2549 22.6648 21.2249 22.6859 21.1825 22.7283C21.1437 22.7706 21.119 22.7971 21.1084 22.8077H21.2726V22.6648ZM21.0714 22.9824C21.0961 22.9824 21.1173 22.9718 21.1349 22.9507C21.1525 22.9259 21.1631 22.9118 21.1667 22.9083H21.0714V22.9824ZM21.1508 23.2471C21.1508 23.2718 21.142 23.2983 21.1243 23.3266C21.1102 23.3513 21.1014 23.3654 21.0978 23.3689C21.0802 23.3936 21.0643 23.4201 21.0502 23.4483C21.0396 23.4766 21.0343 23.5048 21.0343 23.533C21.1402 23.533 21.2073 23.503 21.2355 23.443C21.2637 23.3795 21.2778 23.2877 21.2778 23.1677L21.2726 22.9348C21.2584 22.9454 21.232 22.9648 21.1931 22.993C21.1543 23.0177 21.1243 23.046 21.1031 23.0777C21.082 23.1095 21.0714 23.1448 21.0714 23.1836C21.0714 23.1977 21.0837 23.2101 21.1084 23.2207C21.1367 23.2277 21.1508 23.2365 21.1508 23.2471ZM20.9761 23.9513C20.9761 23.9654 20.9814 23.9883 20.992 24.0201C21.0061 24.0519 21.0131 24.0713 21.0131 24.0783C21.0131 24.1066 21.022 24.1736 21.0396 24.2795C21.1067 24.2442 21.1614 24.2001 21.2037 24.1472C21.1543 24.126 21.1225 24.1031 21.1084 24.0783C21.1296 24.0783 21.1508 24.073 21.172 24.0625C21.1967 24.0519 21.209 24.043 21.209 24.036C21.209 24.0219 21.1949 24.0042 21.1667 23.983C21.1667 23.9725 21.1755 23.9495 21.1931 23.9142C21.2108 23.8789 21.2196 23.8472 21.2196 23.8189H21.0714C21.142 23.8083 21.1878 23.7819 21.209 23.7395C21.2337 23.6972 21.2461 23.6354 21.2461 23.5542C21.1578 23.5542 21.0943 23.5683 21.0555 23.5966C21.0167 23.6213 20.9937 23.6583 20.9867 23.7077C20.9796 23.7536 20.9761 23.8348 20.9761 23.9513ZM21.0396 24.3431C21.1737 24.3431 21.2408 24.3219 21.2408 24.2795C21.2408 24.2689 21.2355 24.2548 21.2249 24.2372C21.2178 24.2195 21.2108 24.2089 21.2037 24.2054L21.0396 24.3431ZM21.0396 24.4384C21.0431 24.4631 21.0678 24.4754 21.1137 24.4754C21.1773 24.4754 21.2231 24.4684 21.2514 24.4542C21.2796 24.4401 21.3078 24.4031 21.3361 24.3431L21.3043 24.3378C21.2478 24.3378 21.1931 24.3448 21.1402 24.3589C21.0908 24.3731 21.0573 24.3995 21.0396 24.4384ZM21.2937 24.4542C21.3396 24.4542 21.3873 24.4595 21.4367 24.4701C21.4896 24.4772 21.5214 24.4895 21.532 24.5072C21.5637 24.5072 21.5973 24.486 21.6326 24.4437C21.6714 24.4013 21.6926 24.3784 21.6961 24.3748H21.6696C21.6167 24.3748 21.5708 24.3872 21.532 24.4119V24.3536C21.3731 24.3536 21.2937 24.3872 21.2937 24.4542ZM22.1302 24.3536C21.8549 24.3536 21.7173 24.4084 21.7173 24.5178C21.8196 24.5178 21.8885 24.4913 21.9238 24.4384C21.9273 24.4525 21.9379 24.4684 21.9555 24.486C21.9767 24.5001 21.9908 24.5072 21.9979 24.5072C22.0261 24.5072 22.0543 24.4895 22.0826 24.4542C22.1143 24.4154 22.1302 24.3819 22.1302 24.3536ZM22.1408 24.5125C22.1514 24.5125 22.1726 24.5054 22.2044 24.4913C22.2396 24.4772 22.2661 24.4701 22.2838 24.4701C22.2873 24.4737 22.2926 24.4807 22.2996 24.4913C22.3067 24.4984 22.312 24.5037 22.3155 24.5072C22.3897 24.5072 22.4955 24.4948 22.6332 24.4701C22.7744 24.4419 22.845 24.4084 22.845 24.3695C22.7708 24.3695 22.6632 24.3766 22.522 24.3907C22.3738 24.4048 22.2608 24.4119 22.1832 24.4119L22.0879 24.5072L22.1408 24.5125Z" fill="#EDAC1A"/>
<path d="M5.2427 36.3228C5.14034 36.3404 5.04681 36.3351 4.9621 36.3069C4.87739 36.2751 4.80856 36.2239 4.75562 36.1534C4.70621 36.0792 4.6815 35.9857 4.6815 35.8728C4.67091 35.7669 4.68326 35.6451 4.71856 35.5075C4.75385 35.3663 4.80503 35.2251 4.87209 35.0839C4.94269 34.9427 5.01857 34.821 5.09975 34.7186C5.17034 34.6339 5.24093 34.5562 5.31152 34.4856C5.38211 34.4151 5.44564 34.3674 5.50212 34.3427C5.55153 34.3215 5.59742 34.3092 5.63977 34.3056C5.68565 34.2986 5.72271 34.2951 5.75095 34.2951C5.80742 34.3092 5.86743 34.3356 5.93096 34.3745C5.99802 34.4098 6.03155 34.4486 6.03155 34.4909C6.03155 34.4909 6.03508 34.4962 6.04214 34.5068C6.05273 34.5139 6.05802 34.5174 6.05802 34.5174C6.0792 34.5174 6.09685 34.5404 6.11096 34.5862C6.12861 34.6321 6.1392 34.6851 6.14273 34.7451C6.14626 34.8015 6.13744 34.8492 6.11626 34.888C6.10214 34.9551 6.07743 35.0133 6.04214 35.0627C6.00684 35.1121 5.97508 35.1368 5.94684 35.1368C5.93272 35.1368 5.9186 35.1386 5.90449 35.1421C5.8939 35.1421 5.8886 35.151 5.8886 35.1686C5.8886 35.1863 5.87801 35.1933 5.85684 35.1898C5.83919 35.1863 5.81978 35.1757 5.7986 35.158C5.77742 35.1368 5.76154 35.1121 5.75095 35.0839C5.75095 35.0663 5.75801 35.0363 5.77213 34.9939C5.78625 34.9515 5.80036 34.8968 5.81448 34.8298C5.83566 34.731 5.83389 34.6674 5.80919 34.6392C5.78448 34.6074 5.73683 34.6057 5.66624 34.6339C5.578 34.6833 5.49329 34.7521 5.41211 34.8404C5.33446 34.9286 5.26211 35.0433 5.19505 35.1845C5.12799 35.3221 5.06798 35.4951 5.01504 35.7033C4.99386 35.7845 4.98504 35.8551 4.98857 35.9151C4.99563 35.9751 5.00445 36.0069 5.01504 36.0104C5.06445 36.0245 5.13152 36.0281 5.21622 36.021C5.30093 36.0104 5.3627 35.9945 5.40153 35.9733C5.458 35.9451 5.52153 35.9081 5.59212 35.8622C5.66271 35.8128 5.72448 35.7686 5.77742 35.7298C5.79507 35.7192 5.81625 35.7016 5.84095 35.6769C5.86566 35.6522 5.89213 35.6327 5.92037 35.6186C5.9486 35.5763 5.97331 35.5516 5.99449 35.5445C6.01567 35.5375 6.04743 35.5339 6.08979 35.5339C6.11802 35.541 6.14449 35.5516 6.1692 35.5657C6.19391 35.5798 6.20979 35.5939 6.21685 35.608C6.22744 35.6222 6.22214 35.6345 6.20097 35.6451C6.18685 35.6451 6.17802 35.6504 6.1745 35.661C6.1745 35.668 6.1745 35.6716 6.1745 35.6716C6.18155 35.6857 6.16567 35.7157 6.12685 35.7616C6.09155 35.8039 6.04567 35.8516 5.98919 35.9045C5.93272 35.9575 5.87801 36.0034 5.82507 36.0422C5.77566 36.0775 5.74036 36.0951 5.71918 36.0951C5.68389 36.0951 5.66624 36.1057 5.66624 36.1269C5.66624 36.1339 5.63977 36.1516 5.58683 36.1798C5.53741 36.2081 5.47918 36.2363 5.41211 36.2645C5.34858 36.2928 5.29211 36.3122 5.2427 36.3228ZM6.91289 36.3016C6.867 36.3016 6.82994 36.2928 6.80171 36.2751C6.777 36.2575 6.74523 36.2328 6.70641 36.201C6.63935 36.1304 6.5917 36.0634 6.56346 35.9998C6.53523 35.9328 6.5264 35.8692 6.53699 35.8092C6.54758 35.781 6.55111 35.7545 6.54758 35.7298C6.54758 35.7016 6.54758 35.6875 6.54758 35.6875C6.52993 35.6698 6.52464 35.6592 6.5317 35.6557C6.53876 35.6486 6.54581 35.638 6.55287 35.6239C6.57405 35.6239 6.58111 35.6045 6.57405 35.5657C6.56699 35.5375 6.58111 35.4757 6.61641 35.3804C6.6517 35.2851 6.69582 35.1951 6.74876 35.1104C6.76994 35.0751 6.80171 35.0292 6.84406 34.9727C6.88642 34.9127 6.9323 34.8545 6.98171 34.798C7.03466 34.738 7.0823 34.6904 7.12466 34.6551C7.2129 34.5809 7.29055 34.5262 7.35761 34.4909C7.42467 34.4556 7.49703 34.4292 7.57468 34.4115C7.65233 34.3939 7.70527 34.3851 7.73351 34.3851C7.76527 34.3851 7.80763 34.4133 7.86057 34.4698C7.94175 34.5051 7.99999 34.5474 8.03528 34.5968C8.07411 34.6462 8.09881 34.7186 8.1094 34.8139C8.11999 34.9198 8.11117 35.0416 8.08293 35.1792C8.05822 35.3133 7.97528 35.481 7.8341 35.6822C7.74586 35.8092 7.66468 35.9045 7.59056 35.9681C7.51644 36.0281 7.4282 36.0881 7.32584 36.1481C7.25172 36.1975 7.18466 36.2345 7.12466 36.2592C7.06466 36.2804 6.99407 36.2945 6.91289 36.3016ZM7.42114 35.7404C7.50585 35.6451 7.57291 35.5551 7.62232 35.4704C7.67527 35.3857 7.72468 35.278 7.77057 35.1474C7.78468 35.1086 7.79351 35.061 7.79704 35.0045C7.80057 34.9445 7.7988 34.8898 7.79174 34.8404C7.78821 34.7874 7.77586 34.7574 7.75468 34.7504C7.71233 34.7257 7.66115 34.7186 7.60115 34.7292C7.54115 34.7362 7.47585 34.7698 7.40526 34.8298C7.29584 34.9215 7.20054 35.0363 7.11936 35.1739C7.03819 35.308 6.95877 35.4616 6.88112 35.6345C6.82818 35.7616 6.81582 35.8639 6.84406 35.9416C6.87583 36.0157 6.94112 36.0422 7.03995 36.021C7.14231 35.9963 7.26937 35.9028 7.42114 35.7404ZM8.56227 36.1851C8.55168 36.171 8.5411 36.1534 8.53051 36.1322C8.52345 36.111 8.51992 36.0934 8.51992 36.0792C8.51992 36.0722 8.51815 36.0634 8.51462 36.0528C8.51462 36.0422 8.50756 36.0369 8.49345 36.0369C8.48286 36.0263 8.48992 35.9857 8.51462 35.9151C8.54286 35.841 8.57816 35.7563 8.62051 35.661C8.66639 35.5657 8.71228 35.4739 8.75816 35.3857C8.80758 35.2939 8.84817 35.2216 8.87993 35.1686C8.89758 35.158 8.90817 35.1439 8.9117 35.1263C8.91876 35.1051 8.91876 35.0945 8.9117 35.0945C8.9117 35.0945 8.92052 35.0786 8.93817 35.0468C8.95935 35.0115 8.97523 34.9886 8.98582 34.978C9.01405 34.9286 9.03523 34.8792 9.04935 34.8298C9.06347 34.7768 9.067 34.7327 9.05994 34.6974C9.04582 34.6798 9.02994 34.6745 9.01229 34.6815C8.99464 34.6886 8.98582 34.6921 8.98582 34.6921C8.9717 34.6957 8.95052 34.7027 8.92229 34.7133C8.89758 34.7204 8.87464 34.731 8.85346 34.7451C8.77228 34.8015 8.71757 34.828 8.68934 34.8245C8.6611 34.8174 8.62933 34.7715 8.59404 34.6868C8.57992 34.648 8.57463 34.6198 8.57816 34.6021C8.58168 34.5845 8.5958 34.5651 8.62051 34.5439C8.64875 34.5192 8.67522 34.5033 8.69992 34.4962C8.72463 34.4856 8.74404 34.4751 8.75816 34.4645C8.79699 34.4398 8.82875 34.4221 8.85346 34.4115C8.8817 34.4009 8.90287 34.3939 8.91699 34.3904C9.00876 34.3621 9.08641 34.3568 9.14994 34.3745C9.21347 34.3921 9.26112 34.438 9.29289 34.5121C9.3423 34.5721 9.36701 34.6409 9.36701 34.7186C9.36701 34.7927 9.3423 34.8792 9.29289 34.978L9.23994 35.0574C9.2223 35.0927 9.21877 35.1104 9.22936 35.1104C9.24347 35.1104 9.25936 35.098 9.277 35.0733C9.28759 35.0592 9.30877 35.038 9.34054 35.0098C9.3723 34.9815 9.39348 34.9674 9.40407 34.9674C9.40407 34.9674 9.4076 34.9657 9.41466 34.9621C9.42525 34.9586 9.43054 34.9445 9.43054 34.9198C9.44113 34.9092 9.45172 34.8986 9.46231 34.888C9.47642 34.8774 9.48348 34.8721 9.48348 34.8721C9.4976 34.8721 9.52407 34.8562 9.5629 34.8245C9.60525 34.7892 9.65467 34.7486 9.71114 34.7027C9.74996 34.6745 9.78526 34.6604 9.81702 34.6604C9.8982 34.6357 9.9635 34.6621 10.0129 34.7398C10.0659 34.8174 10.0923 34.918 10.0923 35.0416L9.98115 35.3274L10.1717 35.0945C10.1929 35.0663 10.2141 35.0416 10.2353 35.0204C10.26 34.9992 10.2812 34.9815 10.2988 34.9674C10.3059 34.9427 10.3165 34.9286 10.3306 34.9251C10.3447 34.9215 10.3518 34.9198 10.3518 34.9198C10.3518 34.9198 10.3553 34.9198 10.3623 34.9198C10.3694 34.9163 10.3729 34.9092 10.3729 34.8986C10.3906 34.8845 10.41 34.8721 10.4312 34.8615C10.4523 34.8474 10.4665 34.8333 10.4735 34.8192C10.5335 34.7945 10.5882 34.791 10.6376 34.8086C10.6871 34.8227 10.7294 34.8668 10.7647 34.941C10.7894 34.9833 10.8035 35.0204 10.8071 35.0521C10.8106 35.0839 10.8124 35.1316 10.8124 35.1951C10.8053 35.248 10.7982 35.2904 10.7912 35.3221C10.7876 35.3504 10.7841 35.3804 10.7806 35.4122C10.7771 35.4439 10.7718 35.488 10.7647 35.5445C10.7506 35.5727 10.7418 35.6027 10.7382 35.6345C10.7382 35.6663 10.7382 35.6963 10.7382 35.7245C10.7382 35.7704 10.74 35.8022 10.7435 35.8198C10.7471 35.8339 10.7612 35.841 10.7859 35.841C10.8353 35.8304 10.9024 35.8057 10.9871 35.7669C11.0753 35.7245 11.1406 35.6839 11.183 35.6451C11.2359 35.5957 11.2818 35.571 11.3206 35.571C11.363 35.5675 11.3894 35.5869 11.4 35.6292C11.4071 35.6433 11.3947 35.6751 11.363 35.7245C11.3347 35.7739 11.3012 35.8216 11.2624 35.8675C11.2271 35.9133 11.2006 35.9363 11.183 35.9363C11.1724 35.9363 11.16 35.9469 11.1459 35.9681C11.1318 35.9857 11.1159 35.9998 11.0982 36.0104C11.0735 36.0351 11.0488 36.0581 11.0241 36.0792C11.003 36.1004 10.9782 36.111 10.95 36.111C10.9359 36.111 10.9182 36.1163 10.8971 36.1269C10.8794 36.1339 10.8582 36.1375 10.8335 36.1375C10.7982 36.1481 10.7435 36.1428 10.6694 36.1216C10.5988 36.1004 10.5529 36.051 10.5318 35.9733C10.5176 35.9345 10.5053 35.8728 10.4947 35.788C10.4841 35.6998 10.4859 35.6116 10.5 35.5233C10.5141 35.4598 10.5229 35.4016 10.5265 35.3486C10.53 35.2957 10.5371 35.2586 10.5476 35.2374C10.5476 35.2269 10.5476 35.2021 10.5476 35.1633C10.5476 35.121 10.5423 35.0998 10.5318 35.0998C10.5176 35.0998 10.4841 35.1263 10.4312 35.1792C10.3818 35.2286 10.3217 35.2921 10.2512 35.3698C10.1841 35.4474 10.117 35.5286 10.05 35.6133C9.98291 35.698 9.92821 35.7739 9.88585 35.841C9.85408 35.8798 9.82585 35.9275 9.80114 35.9839C9.77643 36.0404 9.75879 36.0722 9.7482 36.0792C9.72349 36.1075 9.69349 36.111 9.6582 36.0898C9.62643 36.0686 9.59643 36.0351 9.56819 35.9892C9.5576 35.9681 9.55054 35.9504 9.54701 35.9363C9.54349 35.9186 9.54349 35.8957 9.54701 35.8675C9.55407 35.8357 9.56643 35.7898 9.58407 35.7298C9.60525 35.6698 9.63349 35.5851 9.66878 35.4757C9.70761 35.3557 9.74114 35.248 9.76938 35.1527C9.80114 35.0539 9.81702 35.0045 9.81702 35.0045C9.81702 34.9904 9.79055 35.0045 9.73761 35.0468C9.68467 35.0857 9.6229 35.1351 9.55231 35.1951C9.52054 35.2339 9.4676 35.2921 9.39348 35.3698C9.31936 35.4474 9.23818 35.5357 9.14994 35.6345C9.0617 35.7333 8.97699 35.8375 8.89581 35.9469C8.79346 36.0916 8.7211 36.1798 8.67875 36.2116C8.63992 36.2434 8.6011 36.2345 8.56227 36.1851ZM13.1868 36.1216C13.148 36.0969 13.1127 36.0651 13.0809 36.0263C13.0492 35.9839 13.0333 35.931 13.0333 35.8675C13.0333 35.8322 13.0403 35.7722 13.0545 35.6875C13.0686 35.6027 13.088 35.5075 13.1127 35.4016C13.1374 35.2957 13.1621 35.1969 13.1868 35.1051C13.2221 35.0416 13.2521 34.978 13.2768 34.9145C13.3015 34.851 13.3139 34.8121 13.3139 34.798C13.3209 34.7557 13.3298 34.7062 13.3403 34.6498C13.3545 34.5933 13.3686 34.5421 13.3827 34.4962C13.3968 34.4504 13.4074 34.4239 13.4145 34.4168C13.4321 34.3992 13.4533 34.3886 13.478 34.3851C13.5027 34.378 13.5274 34.3815 13.5521 34.3956C13.5804 34.4062 13.6015 34.4292 13.6157 34.4645C13.6545 34.5068 13.6739 34.558 13.6739 34.618C13.6739 34.6745 13.6545 34.7592 13.6157 34.8721C13.5839 34.9427 13.5521 35.0257 13.5204 35.121C13.4886 35.2163 13.4604 35.3045 13.4356 35.3857C13.4145 35.4633 13.4021 35.5163 13.3986 35.5445L13.2927 35.5763C13.3527 35.5198 13.4092 35.4616 13.4621 35.4016C13.5151 35.338 13.5539 35.2886 13.5786 35.2533C13.6386 35.1721 13.6898 35.1051 13.7321 35.0521C13.778 34.9957 13.8362 34.9286 13.9068 34.851C13.9774 34.7698 14.0463 34.7204 14.1133 34.7027C14.1839 34.6815 14.2386 34.6709 14.2774 34.6709C14.3551 34.6851 14.4169 34.7257 14.4627 34.7927C14.5122 34.8562 14.5439 34.9515 14.558 35.0786C14.558 35.128 14.5527 35.1863 14.5422 35.2533C14.5351 35.3204 14.5316 35.3539 14.5316 35.3539C14.5316 35.3539 14.5598 35.3169 14.6163 35.2427C14.6763 35.1686 14.7557 35.0874 14.8545 34.9992C14.9216 34.9498 14.9869 34.9215 15.0504 34.9145C15.1139 34.9039 15.1704 34.9251 15.2198 34.978C15.3116 35.0274 15.3716 35.1033 15.3998 35.2057C15.4281 35.3045 15.4351 35.4316 15.421 35.5869C15.4104 35.6786 15.4087 35.7475 15.4157 35.7933C15.4228 35.8357 15.4334 35.8781 15.4475 35.9204C15.4757 35.9345 15.481 35.9645 15.4634 36.0104C15.4457 36.0528 15.4245 36.0739 15.3998 36.0739C15.3645 36.0739 15.324 36.0669 15.2781 36.0528C15.2357 36.0386 15.1969 36.0157 15.1616 35.9839C15.1298 35.9486 15.1139 35.901 15.1139 35.841V35.5127C15.1139 35.4351 15.1104 35.3716 15.1034 35.3221C15.0998 35.2727 15.091 35.2427 15.0769 35.2321C15.0381 35.211 14.9816 35.2339 14.9075 35.301C14.8333 35.368 14.7539 35.458 14.6692 35.571C14.5845 35.6839 14.5051 35.8004 14.431 35.9204C14.3639 36.0298 14.3216 36.0934 14.3039 36.111C14.2898 36.1251 14.2633 36.1198 14.2245 36.0951C14.1468 36.0704 14.0974 36.0369 14.0763 35.9945C14.0586 35.9486 14.0568 35.8975 14.071 35.841C14.0886 35.781 14.1098 35.6998 14.1345 35.5975C14.1627 35.4951 14.1892 35.3963 14.2139 35.301C14.2386 35.2021 14.2545 35.1316 14.2616 35.0892C14.2474 35.061 14.2227 35.0521 14.1874 35.0627C14.1557 35.0698 14.1221 35.0857 14.0868 35.1104C14.0445 35.1386 13.9933 35.1916 13.9333 35.2692C13.8733 35.3469 13.8115 35.4369 13.748 35.5392C13.7057 35.6063 13.6615 35.6733 13.6157 35.7404C13.5698 35.8039 13.5274 35.8604 13.4886 35.9098C13.4498 35.9592 13.4162 35.9963 13.388 36.021C13.3386 36.0986 13.3051 36.141 13.2874 36.1481C13.2698 36.1551 13.2362 36.1463 13.1868 36.1216ZM17.1447 36.3704C17.12 36.3845 17.0864 36.3792 17.0441 36.3545C17.0053 36.3298 16.9664 36.2928 16.9276 36.2434C16.9029 36.201 16.8853 36.1551 16.8747 36.1057C16.8676 36.0563 16.8641 35.9875 16.8641 35.8992C16.8676 35.8286 16.8641 35.7828 16.8535 35.7616C16.8464 35.7404 16.827 35.7439 16.7953 35.7722C16.7635 35.7969 16.7088 35.8481 16.6311 35.9257C16.5429 36.0139 16.4582 36.0828 16.377 36.1322C16.2994 36.1816 16.2358 36.2045 16.1864 36.201C16.1617 36.201 16.1335 36.1887 16.1017 36.1639C16.0735 36.1357 16.047 36.1022 16.0223 36.0634C15.9976 36.021 15.9764 35.9786 15.9588 35.9363C15.9376 35.8586 15.9341 35.7598 15.9482 35.6398C15.9658 35.5163 15.9941 35.3874 16.0329 35.2533C16.0717 35.1192 16.1158 34.9921 16.1652 34.8721C16.2182 34.7521 16.2711 34.6551 16.3241 34.5809C16.3805 34.5068 16.43 34.4698 16.4723 34.4698C16.5005 34.4698 16.5253 34.4839 16.5464 34.5121C16.5711 34.5404 16.5958 34.5845 16.6205 34.6445C16.6347 34.6692 16.64 34.6904 16.6364 34.708C16.6364 34.7257 16.6223 34.7468 16.5941 34.7715C16.5623 34.8139 16.5253 34.8774 16.4829 34.9621C16.4441 35.0468 16.4052 35.1386 16.3664 35.2374C16.3311 35.3363 16.2994 35.4316 16.2711 35.5233C16.2429 35.6151 16.2235 35.691 16.2129 35.751C16.2023 35.8075 16.2041 35.8357 16.2182 35.8357C16.2676 35.8357 16.3258 35.8163 16.3929 35.7775C16.4635 35.7351 16.5305 35.6839 16.5941 35.6239C16.6682 35.5498 16.7335 35.4686 16.79 35.3804C16.85 35.2921 16.91 35.1986 16.97 35.0998C17.0159 35.0292 17.0635 34.9515 17.1129 34.8668C17.1659 34.7821 17.1994 34.7221 17.2135 34.6868C17.2629 34.5951 17.3 34.5333 17.3247 34.5015C17.3494 34.4662 17.3794 34.4433 17.4147 34.4327C17.4323 34.4327 17.4482 34.4327 17.4623 34.4327C17.48 34.4327 17.4888 34.4327 17.4888 34.4327C17.51 34.4362 17.5347 34.4521 17.5629 34.4804C17.5912 34.4945 17.6071 34.5086 17.6106 34.5227C17.6141 34.5333 17.6159 34.5474 17.6159 34.5651C17.6018 34.6004 17.5788 34.6533 17.5471 34.7239C17.5188 34.791 17.4976 34.8404 17.4835 34.8721C17.4165 35.0239 17.3494 35.1739 17.2823 35.3221C17.2188 35.4669 17.1729 35.6151 17.1447 35.7669C17.1376 35.8163 17.1359 35.8745 17.1394 35.9416C17.1464 36.0051 17.157 36.051 17.1712 36.0792C17.1817 36.1004 17.1941 36.1251 17.2082 36.1534C17.2259 36.1781 17.2453 36.1992 17.2665 36.2169C17.2982 36.2381 17.3035 36.261 17.2823 36.2857C17.2647 36.3104 17.24 36.3316 17.2082 36.3492C17.1765 36.3634 17.1553 36.3704 17.1447 36.3704ZM18.183 36.4022C18.1159 36.374 18.0524 36.3369 17.9924 36.291C17.9324 36.2416 17.8936 36.201 17.8759 36.1692C17.8759 36.1375 17.8812 36.1163 17.8918 36.1057C17.9024 36.0916 17.9324 36.0863 17.9818 36.0898C18.0348 36.0898 18.1195 36.0969 18.2359 36.111C18.2783 36.111 18.3312 36.1075 18.3948 36.1004C18.4583 36.0934 18.5165 36.0828 18.5695 36.0686C18.6259 36.0545 18.6577 36.0369 18.6648 36.0157C18.6824 36.0157 18.686 36.0104 18.6754 35.9998C18.6648 35.9857 18.6524 35.9716 18.6383 35.9575C18.6242 35.9575 18.6083 35.9522 18.5907 35.9416C18.573 35.9275 18.5571 35.9204 18.543 35.9204C18.543 35.9028 18.5254 35.8833 18.4901 35.8622C18.4583 35.8375 18.4248 35.818 18.3895 35.8039C18.3118 35.7404 18.2448 35.6839 18.1883 35.6345C18.1318 35.5816 18.1106 35.5463 18.1248 35.5286C18.1248 35.5145 18.1248 35.5075 18.1248 35.5075C18.1248 35.5039 18.1248 35.5022 18.1248 35.5022C18.1 35.5022 18.0718 35.4669 18.04 35.3963C18.0118 35.3257 17.9977 35.2621 17.9977 35.2057C17.9977 35.1633 18.01 35.1104 18.0348 35.0468C18.0595 34.9798 18.093 34.911 18.1353 34.8404C18.1777 34.7698 18.2218 34.7115 18.2677 34.6657C18.3312 34.6057 18.4106 34.5421 18.5059 34.4751C18.6012 34.4045 18.6948 34.3427 18.7865 34.2898C18.8818 34.2333 18.9613 34.1962 19.0248 34.1786C19.0883 34.1539 19.1466 34.1415 19.1995 34.1415C19.256 34.1415 19.3054 34.1539 19.3477 34.1786C19.383 34.1962 19.4148 34.2227 19.443 34.258C19.4748 34.2898 19.5013 34.3233 19.5225 34.3586C19.5472 34.3903 19.563 34.4186 19.5701 34.4433C19.5701 34.4856 19.5666 34.5333 19.5595 34.5862C19.5525 34.6357 19.5419 34.6798 19.5277 34.7186C19.5172 34.7574 19.4995 34.7768 19.4748 34.7768C19.4748 34.7768 19.4695 34.7786 19.4589 34.7821C19.4519 34.7821 19.4483 34.791 19.4483 34.8086C19.4483 34.8439 19.4219 34.8845 19.3689 34.9304C19.3019 34.9763 19.2436 35.0045 19.1942 35.0151C19.1448 35.0221 19.1148 35.0027 19.1042 34.9568C19.0936 34.9427 19.0866 34.9304 19.083 34.9198C19.0795 34.9092 19.0707 34.9039 19.0566 34.9039C19.0566 34.9039 19.0513 34.8986 19.0407 34.888C19.0301 34.8774 19.0248 34.8598 19.0248 34.8351C19.0248 34.821 19.0301 34.8086 19.0407 34.798C19.0513 34.7839 19.0566 34.7768 19.0566 34.7768C19.0742 34.7768 19.0971 34.7574 19.1254 34.7186C19.1536 34.6762 19.1783 34.6321 19.1995 34.5862C19.2242 34.5368 19.2366 34.5033 19.2366 34.4856C19.2366 34.4645 19.233 34.4521 19.226 34.4486C19.2224 34.4451 19.2066 34.4433 19.1783 34.4433C19.1289 34.4645 19.0689 34.4927 18.9983 34.528C18.9277 34.5633 18.8607 34.5986 18.7971 34.6339C18.7371 34.6657 18.693 34.6957 18.6648 34.7239C18.6507 34.7486 18.6418 34.7645 18.6383 34.7715C18.6348 34.7751 18.6259 34.7768 18.6118 34.7768C18.6118 34.7627 18.5995 34.7698 18.5748 34.798C18.5536 34.8227 18.5254 34.858 18.4901 34.9039C18.4583 34.9498 18.4265 34.9957 18.3948 35.0416C18.3665 35.0839 18.3453 35.1157 18.3312 35.1368C18.3242 35.1439 18.3153 35.1651 18.3048 35.2004C18.2977 35.2321 18.2942 35.2621 18.2942 35.2904C18.2801 35.3327 18.2818 35.3627 18.2995 35.3804C18.3171 35.3945 18.3559 35.4263 18.4159 35.4757C18.5395 35.5675 18.6365 35.6433 18.7071 35.7033C18.7777 35.7633 18.8307 35.8128 18.866 35.8516C18.9013 35.8904 18.9224 35.9257 18.9295 35.9575C18.993 36.0634 19.0124 36.1445 18.9877 36.201C18.963 36.2575 18.903 36.3069 18.8077 36.3492C18.7724 36.3669 18.7142 36.381 18.633 36.3916C18.5518 36.4022 18.4689 36.4075 18.3842 36.4075C18.2995 36.411 18.2324 36.4092 18.183 36.4022ZM19.765 36.1216C19.7509 36.1216 19.7333 36.1181 19.7121 36.111C19.6944 36.1004 19.6856 36.0951 19.6856 36.0951C19.6856 36.081 19.6803 36.0634 19.6697 36.0422C19.6627 36.021 19.6592 36.0034 19.6592 35.9892C19.6344 35.9751 19.6203 35.961 19.6168 35.9469C19.6133 35.9292 19.6186 35.901 19.6327 35.8622C19.6539 35.8269 19.6821 35.7704 19.7174 35.6928C19.7527 35.6116 19.7897 35.5251 19.8286 35.4333C19.8674 35.338 19.9045 35.2445 19.9398 35.1527C19.975 35.061 20.005 34.9833 20.0298 34.9198C20.0545 34.8527 20.0686 34.8121 20.0721 34.798C20.0721 34.7839 20.0774 34.7662 20.088 34.7451C20.0986 34.7239 20.1109 34.7062 20.1251 34.6921C20.1533 34.6674 20.1833 34.6657 20.2151 34.6868C20.2468 34.7045 20.2733 34.7362 20.2945 34.7821C20.3192 34.8245 20.3315 34.8721 20.3315 34.9251C20.3315 34.9498 20.3139 35.0133 20.2786 35.1157C20.2433 35.2145 20.1956 35.3327 20.1356 35.4704C20.0792 35.608 20.0156 35.7475 19.945 35.8886C19.8921 35.991 19.8586 36.0563 19.8445 36.0845C19.8303 36.1092 19.8039 36.1216 19.765 36.1216ZM20.5433 34.115C20.5009 34.115 20.4551 34.0992 20.4057 34.0674C20.3598 34.0321 20.3192 33.9897 20.2839 33.9403C20.2521 33.8874 20.2362 33.8344 20.2362 33.7815C20.2362 33.7639 20.2468 33.7391 20.268 33.7074C20.2892 33.6756 20.3104 33.6439 20.3315 33.6121C20.3527 33.5803 20.3633 33.5609 20.3633 33.5538C20.3915 33.5538 20.4127 33.5556 20.4268 33.5591C20.4445 33.5591 20.4657 33.5662 20.4904 33.5803C20.5292 33.6686 20.5768 33.7409 20.6333 33.7974C20.6933 33.8539 20.7233 33.9015 20.7233 33.9403C20.7233 34.018 20.7163 34.0674 20.7021 34.0886C20.688 34.1062 20.6351 34.115 20.5433 34.115ZM21.2079 36.2592C21.1302 36.2592 21.072 36.2557 21.0332 36.2487C20.9943 36.2416 20.9643 36.231 20.9431 36.2169C20.922 36.2028 20.8973 36.1834 20.869 36.1587C20.8549 36.1304 20.8373 36.1004 20.8161 36.0686C20.7949 36.0369 20.7773 36.0139 20.7631 35.9998C20.749 35.9469 20.742 35.8781 20.742 35.7933C20.7455 35.7086 20.7561 35.6169 20.7737 35.518C20.7949 35.4192 20.8231 35.3274 20.8584 35.2427C20.8726 35.2145 20.8849 35.1863 20.8955 35.158C20.9061 35.1298 20.9114 35.1157 20.9114 35.1157C20.9114 35.098 20.9326 35.0557 20.9749 34.9886C21.0208 34.9215 21.0702 34.851 21.1232 34.7768C21.1796 34.7027 21.2255 34.6498 21.2608 34.618C21.2855 34.5898 21.3226 34.5598 21.372 34.528C21.4249 34.4962 21.4708 34.4733 21.5096 34.4592C21.5485 34.4451 21.5873 34.4327 21.6261 34.4221C21.6685 34.4115 21.7161 34.4062 21.7691 34.4062C21.8185 34.4062 21.8644 34.4168 21.9067 34.438C21.9491 34.4592 21.9897 34.4962 22.0285 34.5492C22.092 34.6127 22.1273 34.6762 22.1344 34.7398C22.145 34.7998 22.1432 34.8615 22.1291 34.9251C22.1114 34.9957 22.0885 35.0504 22.0602 35.0892C22.032 35.1245 22.0002 35.1404 21.965 35.1368C21.9297 35.1333 21.8891 35.1068 21.8432 35.0574C21.8291 35.0292 21.822 35.0063 21.822 34.9886C21.822 34.9674 21.8291 34.9374 21.8432 34.8986C21.8573 34.8492 21.8573 34.798 21.8432 34.7451C21.8291 34.6921 21.8061 34.6657 21.7744 34.6657C21.7285 34.6657 21.6773 34.6868 21.6208 34.7292C21.5679 34.768 21.5132 34.8174 21.4567 34.8774C21.432 34.9057 21.3967 34.9498 21.3508 35.0098C21.3085 35.0663 21.2661 35.1298 21.2237 35.2004C21.1814 35.2674 21.1461 35.3327 21.1179 35.3963C21.079 35.5127 21.0473 35.6063 21.0226 35.6769C21.0014 35.7475 20.9908 35.7828 20.9908 35.7828C20.9908 35.7969 20.9943 35.811 21.0014 35.8251C21.012 35.8357 21.0173 35.8481 21.0173 35.8622C21.0173 35.9045 21.042 35.9381 21.0914 35.9628C21.1302 35.9875 21.1761 36.0016 21.229 36.0051C21.282 36.0051 21.3473 35.9875 21.4249 35.9522C21.4814 35.9239 21.5343 35.8869 21.5838 35.841C21.6367 35.7951 21.6914 35.7545 21.7479 35.7192C21.7867 35.6945 21.8167 35.6733 21.8379 35.6557C21.8626 35.638 21.8749 35.6363 21.8749 35.6504C21.8749 35.6645 21.8802 35.6716 21.8908 35.6716C21.9014 35.6716 21.9138 35.6645 21.9279 35.6504C21.9491 35.6222 21.972 35.6045 21.9967 35.5975C22.0214 35.5869 22.0426 35.5833 22.0602 35.5869C22.0814 35.5869 22.092 35.5922 22.092 35.6027C22.085 35.6345 22.092 35.661 22.1132 35.6822C22.1132 35.6963 22.1079 35.7157 22.0973 35.7404C22.0902 35.7616 22.0797 35.7792 22.0655 35.7933C22.0479 35.818 22.0214 35.8463 21.9861 35.8781C21.9544 35.9098 21.9244 35.9381 21.8961 35.9628C21.8679 35.9839 21.8538 35.9945 21.8538 35.9945C21.8397 35.991 21.8255 35.9945 21.8114 36.0051C21.8008 36.0157 21.7885 36.0281 21.7744 36.0422C21.7461 36.0669 21.7196 36.0863 21.6949 36.1004C21.6702 36.111 21.6508 36.1163 21.6367 36.1163C21.612 36.1304 21.5926 36.1392 21.5785 36.1428C21.5679 36.1463 21.5626 36.1551 21.5626 36.1692C21.5273 36.2045 21.4832 36.2292 21.4302 36.2434C21.3808 36.2539 21.3067 36.2592 21.2079 36.2592ZM22.5451 36.1904C22.531 36.1622 22.5134 36.141 22.4922 36.1269C22.471 36.1092 22.4604 36.0934 22.4604 36.0792C22.4604 36.0651 22.4587 36.051 22.4551 36.0369C22.4551 36.0192 22.4481 36.0034 22.434 35.9892C22.4163 35.9681 22.4181 35.9204 22.4392 35.8463C22.4604 35.7686 22.4957 35.6751 22.5451 35.5657C22.5945 35.4527 22.6528 35.3345 22.7198 35.211C22.7481 35.1827 22.7763 35.1457 22.8046 35.0998C22.8328 35.0539 22.854 35.0239 22.8681 35.0098C22.8681 34.9957 22.8734 34.9833 22.884 34.9727C22.8946 34.9586 22.9069 34.9515 22.921 34.9515V34.9198C22.921 34.9021 22.9369 34.8721 22.9687 34.8298C23.004 34.7874 23.0463 34.7415 23.0957 34.6921C23.1452 34.6392 23.1963 34.5898 23.2493 34.5439C23.3022 34.4945 23.3463 34.4592 23.3816 34.438C23.4558 34.3886 23.5316 34.3586 23.6093 34.348C23.6905 34.3374 23.7593 34.3551 23.8158 34.4009C23.8264 34.4115 23.844 34.4292 23.8687 34.4539C23.8934 34.4786 23.9217 34.5068 23.9534 34.5386C23.9887 34.5668 24.024 34.5968 24.0593 34.6286L24.2552 34.8033L24.1599 35.068C24.114 35.2092 24.1017 35.3327 24.1228 35.4386C24.1475 35.5445 24.1828 35.6363 24.2287 35.7139C24.2464 35.7528 24.2817 35.7898 24.3346 35.8251C24.3911 35.8604 24.444 35.8816 24.4934 35.8886C24.5217 35.8922 24.5481 35.9028 24.5729 35.9204C24.5976 35.9381 24.6099 35.9663 24.6099 36.0051C24.6099 36.0404 24.6029 36.0686 24.5887 36.0898C24.5746 36.111 24.5499 36.1251 24.5146 36.1322C24.3981 36.1463 24.2887 36.1181 24.1864 36.0475C24.0875 35.9769 23.9958 35.8604 23.9111 35.698C23.8969 35.6769 23.8775 35.638 23.8528 35.5816C23.8317 35.5216 23.8193 35.4827 23.8158 35.4651C23.8017 35.4827 23.7752 35.5163 23.7364 35.5657C23.6975 35.6116 23.6675 35.6451 23.6464 35.6663C23.3958 35.9204 23.1787 36.0916 22.9951 36.1798C22.8151 36.2645 22.6651 36.2681 22.5451 36.1904ZM22.7357 35.8939C22.7357 35.9186 22.7728 35.9186 22.8469 35.8939C22.9246 35.8657 23.0075 35.8163 23.0957 35.7457C23.2157 35.6433 23.3358 35.5304 23.4558 35.4069C23.5793 35.2833 23.6781 35.1686 23.7522 35.0627L23.8687 34.8721C23.8334 34.791 23.7946 34.7362 23.7522 34.708C23.7134 34.6762 23.6799 34.6604 23.6516 34.6604C23.6058 34.6604 23.5369 34.7027 23.4452 34.7874C23.3569 34.8721 23.2616 34.9851 23.1593 35.1263C23.0569 35.2674 22.9599 35.4227 22.8681 35.5922C22.8328 35.6628 22.801 35.7316 22.7728 35.7986C22.7481 35.8622 22.7357 35.8939 22.7357 35.8939ZM24.8245 36.4287C24.7786 36.411 24.745 36.3845 24.7239 36.3492C24.7027 36.3104 24.6903 36.2557 24.6868 36.1851C24.6868 36.1428 24.6939 36.0863 24.708 36.0157C24.7221 35.9451 24.738 35.8639 24.7556 35.7722C24.7556 35.7651 24.7556 35.758 24.7556 35.751C24.7592 35.7404 24.7609 35.7333 24.7609 35.7298C24.7645 35.7157 24.768 35.6945 24.7715 35.6663C24.7786 35.638 24.7839 35.6169 24.7874 35.6027C24.7909 35.5851 24.7927 35.5851 24.7927 35.6027L24.8298 35.4598C24.8474 35.3963 24.865 35.3327 24.8827 35.2692C24.9003 35.2057 24.9162 35.151 24.9303 35.1051C24.9445 35.0557 24.9533 35.0274 24.9568 35.0204C24.9568 35.0204 24.9639 35.001 24.978 34.9621C24.9921 34.9198 25.0062 34.8792 25.0203 34.8404C25.0804 34.6745 25.1351 34.5351 25.1845 34.4221C25.2339 34.3056 25.278 34.2209 25.3168 34.168C25.3204 34.1574 25.3257 34.145 25.3327 34.1309C25.3398 34.1133 25.3451 34.0992 25.3486 34.0886C25.3521 34.0603 25.3557 34.0392 25.3592 34.025C25.3662 34.0074 25.3751 33.9915 25.3857 33.9774C25.3927 33.9633 25.4033 33.9456 25.4174 33.9245C25.4315 33.8997 25.4474 33.8697 25.4651 33.8344L25.4862 33.7762C25.5074 33.7303 25.5339 33.6791 25.5657 33.6227C25.5974 33.5662 25.6204 33.5256 25.6345 33.5009C25.6486 33.4691 25.6698 33.4321 25.698 33.3897C25.7263 33.3438 25.7474 33.3138 25.7616 33.2997L25.7563 33.2944C25.7739 33.2627 25.7951 33.245 25.8198 33.2415C25.848 33.2344 25.878 33.2309 25.9098 33.2309C25.9592 33.2309 25.9874 33.238 25.9945 33.2521C26.0016 33.2662 26.0051 33.298 26.0051 33.3474C26.0051 33.4003 26.0033 33.4391 25.9998 33.4638C25.9998 33.485 25.9857 33.5097 25.9574 33.538H25.9627C25.9698 33.5309 25.968 33.5397 25.9574 33.5644C25.9469 33.5856 25.938 33.6015 25.931 33.6121C25.9239 33.6297 25.9151 33.6491 25.9045 33.6703C25.8974 33.6915 25.8886 33.7074 25.878 33.718C25.8674 33.7321 25.841 33.7797 25.7986 33.8609C25.7598 33.9386 25.7139 34.0303 25.661 34.1362C25.6115 34.2421 25.5639 34.3445 25.518 34.4433C25.4721 34.5421 25.4386 34.618 25.4174 34.6709L25.391 34.7504C25.3839 34.7645 25.3804 34.7751 25.3804 34.7821C25.3698 34.8068 25.3592 34.8315 25.3486 34.8562C25.338 34.881 25.3274 34.9021 25.3168 34.9198L25.2268 35.2269L25.2004 35.338L25.1527 35.4545L25.1209 35.5551C25.1139 35.5763 25.1086 35.5957 25.1051 35.6133C25.1015 35.631 25.0945 35.6451 25.0839 35.6557C25.0839 35.6592 25.0821 35.6645 25.0786 35.6716C25.0786 35.6751 25.0786 35.6786 25.0786 35.6822C25.0645 35.7386 25.0486 35.818 25.0309 35.9204C25.0133 36.0228 25.0009 36.1304 24.9939 36.2434C24.9939 36.2469 24.9921 36.2504 24.9886 36.2539C24.9886 36.2575 24.9886 36.261 24.9886 36.2645C24.978 36.3387 24.9603 36.3881 24.9356 36.4128C24.9109 36.4375 24.8739 36.4428 24.8245 36.4287Z" fill="#B63E04"/>
</svg>
