<svg width="10" height="10" viewBox="0 0 10 10" fill="none" xmlns="http://www.w3.org/2000/svg">
<path d="M9.64285 5C9.64285 5.34551 9.32299 5.6252 8.92857 5.6252H5.71428V8.4377C5.71428 8.7832 5.39442 9.0625 5 9.0625C4.60558 9.0625 4.28571 8.7832 4.28571 8.4377V5.6252H1.07143C0.677006 5.6252 0.35714 5.34551 0.35714 5C0.35714 4.65449 0.677006 4.3752 1.07143 4.3752H4.28571V1.5627C4.28571 1.21719 4.60558 0.9375 5 0.9375C5.39442 0.9375 5.71428 1.21719 5.71428 1.5627V4.3752H8.92857C9.32366 4.375 9.64285 4.6543 9.64285 5Z" fill="#0F0F0F"/>
</svg>
